<svg height="15" width="15" xmlns="http://www.w3.org/2000/svg"><path d="m1.1 1037.4c.4-.1.7-.1 1.1.1s.7.6.8 1c.1.3 0 .7-.1 1 .2.2.5.4.7.6.9.8 1.8 1.6 2.7 2.4.2-.2.4-.3.6-.4.4-.1.9-.1 1.3.1.1.1.2.2.4.3.9-.8 1.9-1.6 2.8-2.4.2-.2.5-.4.7-.6-.1-.3-.2-.6-.1-.8 0-.4.2-.7.5-.9s.6-.4 1-.4.8.1 1.1.4.5.6.5 1c0 .3 0 .6-.2.8-.2.4-.5.6-.9.8-.4.1-.8.1-1.1-.1-.1 0-.2-.1-.2-.1-.3.2-.5.4-.7.6-1 .8-1.9 1.7-2.9 2.5.1.3.1.7-.1 1-.2.4-.6.7-1 .9v3.5.6c.3.1.6.3.8.5.2.3.4.7.3 1.1 0 .4-.2.8-.5 1.1-.3.2-.6.4-1 .4s-.7-.1-1-.4c-.2-.2-.4-.5-.5-.8-.1-.4 0-.8.1-1.1.2-.4.6-.7 1-.8 0-1.4 0-2.7 0-4.1-.3-.1-.6-.3-.8-.5-.3-.3-.4-.8-.3-1.3 0-.1.1-.2 0-.2-.7-.6-1.4-1.2-2.1-1.8-.3-.3-.7-.6-1.1-.9-.1-.1-.3-.2-.4-.3-.3.2-.6.3-.9.3-.4 0-.9-.2-1.2-.5s-.4-.7-.4-1c0-.4.1-.7.4-1 .2-.2.5-.4.8-.5z" transform="translate(-.000194 -1037.3601)"/></svg>