<svg height="140" width="124.5" xmlns="http://www.w3.org/2000/svg" xmlns:xlink="http://www.w3.org/1999/xlink"><linearGradient id="a" gradientTransform="matrix(.9341505 0 0 .8829252 -10.487259 -1.5154)" gradientUnits="userSpaceOnUse" x1="24" x2="73" y1="16.4" y2="73.4"><stop offset="0" stop-color="#fff"/><stop offset="1" stop-color="#fff" stop-opacity="0"/></linearGradient><radialGradient id="b" cx="63.2" cy="50.1" fy="51.5" gradientUnits="userSpaceOnUse" r="167.4"><stop offset="0" stop-color="#46a046"/><stop offset=".4" stop-color="#df421e"/><stop offset=".7" stop-color="#ada7c8"/><stop offset="1" stop-color="#eed680"/></radialGradient><rect fill="none" height="132.5" rx="22.9" stroke="#000" stroke-linejoin="round" stroke-opacity=".5" stroke-width="7.5" width="117" x="3.8" y="3.8"/><rect fill="#df421e" height="132.5" rx="22.9" stroke="#000" stroke-width="3.8" width="117" x="3.8" y="3.8"/><path d="m99.7 132.6h-75.7c-11.7 0-17.4-5.7-17.4-17.3 0 0 27.6-66.5 110.4-76.7v76.7c0 11.6-5.7 17.3-17.3 17.3z" fill="#fff" fill-opacity=".3"/><path d="m121.2 66.6a44.7 44.7 0 1 1 -89.3 0 44.7 44.7 0 1 1 89.3 0z" fill="url(#b)" stroke="#000" stroke-width="4" transform="matrix(.798804 0 0 .798804 1.498867 -3.665872)"/><path d="m108 93.7v5.3h-17.2c-1.1 0-2.1.3-3 1-.7.7-1.1 1.6-1.1 2.7 0 1.3.4 2.3 1.2 2.9s1.7.9 3 .9h9.7c2.1 0 4.1.6 5.8 1.8 2.2 1.6 3.3 4.1 3.3 7.3 0 3.1-1.1 5.5-3.3 7.3-1.7 1.3-3.6 1.9-5.8 1.9h-20.6v-5.3h17.6c1 0 1.9-.4 2.8-1.1.8-.7 1.3-1.7 1.3-2.8s-.5-2-1.3-2.7c-.8-.8-1.8-1.1-2.9-1.1h-9.8c-2.2 0-4.1-.6-5.8-1.8-2.2-1.6-3.2-4.1-3.2-7.3s1-5.6 3.2-7.2c1.7-1.2 3.6-1.8 5.8-1.8zm-61.9 0h16.5c4.2 0 7.4 1.3 9.6 4 2.2 2.6 3.3 6.5 3.3 11.5s-1.1 8.9-3.3 11.5c-2.2 2.7-5.4 4.1-9.6 4.1h-16.5zm6.5 25.8h7.9c2.6 0 4.5-.9 5.8-2.6 1.2-1.7 1.8-4.2 1.8-7.7 0-3.4-.6-6-1.8-7.7-1.1-1.6-3.1-2.5-5.8-2.5h-7.9zm-14.2-10c1.3.6 2.2 1.3 2.8 2.1 1.2 1.4 1.7 3 1.7 4.9 0 2.8-1.1 4.9-3.2 6.5-.9.6-1.8 1.1-2.8 1.3-1 .3-2 .5-3.1.5h-17.5v-5.3h15.3c1.2 0 2.2-.3 2.9-.9.8-.7 1.3-1.6 1.3-3 0-1.3-.4-2.2-1.2-2.9-.8-.6-1.8-.9-3-.9h-11.8v-5.1h11.8c1.2 0 2.1-.3 2.9-.9s1.3-1.6 1.3-3c0-1.2-.4-2.1-1.2-2.8-.8-.6-1.8-1-3-1h-15.3v-5.3h17.5c2.2 0 4.1.5 5.9 1.7 2.1 1.5 3.2 3.7 3.2 6.5 0 1.9-.5 3.5-1.7 4.9-.6.8-1.6 1.5-2.8 2.1l-.5.3z"/><path d="m107.3 93v5.3h-17.2c-1.1 0-2.1.4-3 1-.7.7-1.1 1.6-1.1 2.8s.4 2.2 1.3 2.8c.7.6 1.7.9 2.9.9h9.7c2.2 0 4.1.6 5.8 1.8 2.2 1.7 3.3 4.1 3.3 7.3 0 3.1-1.1 5.6-3.3 7.3-1.7 1.3-3.6 1.9-5.8 1.9h-20.6v-5.3h17.6c1 0 1.9-.4 2.8-1.1.8-.7 1.3-1.6 1.3-2.8 0-1.1-.5-2-1.3-2.7s-1.8-1.1-2.9-1.1h-9.8c-2.1 0-4.1-.6-5.7-1.8-2.2-1.6-3.3-4-3.3-7.2s1.1-5.6 3.3-7.3c1.6-1.2 3.5-1.8 5.7-1.8zm-61.9 0h16.5c4.2 0 7.4 1.3 9.6 4s3.3 6.5 3.3 11.5-1.1 8.9-3.3 11.6-5.4 4-9.6 4h-16.5zm6.5 25.8h7.9c2.6 0 4.5-.9 5.8-2.5 1.2-1.7 1.9-4.3 1.9-7.8 0-3.4-.6-6-1.8-7.6-1.2-1.7-3.2-2.6-5.9-2.6h-7.9zm-14.2-10c1.3.6 2.2 1.3 2.8 2.1 1.2 1.4 1.8 3.1 1.8 4.9 0 2.8-1.1 4.9-3.3 6.5-.9.6-1.8 1.1-2.8 1.4s-2 .4-3.1.4h-17.5v-5.3h15.3c1.2 0 2.2-.3 2.9-.9.9-.6 1.3-1.6 1.3-3 0-1.2-.4-2.2-1.2-2.8-.8-.7-1.8-1-3-1h-11.8v-5.1h11.8c1.2 0 2.2-.3 2.9-.9.9-.6 1.3-1.6 1.3-3 0-1.2-.4-2.1-1.2-2.8-.8-.6-1.8-1-3-1h-15.3v-5.3h17.5c2.2 0 4.1.6 5.9 1.7 2.2 1.6 3.3 3.7 3.3 6.6 0 1.8-.6 3.4-1.8 4.8-.6.8-1.5 1.5-2.8 2.2l-.5.2z" fill="#fff"/><path d="m26 9h75.3c11.5 0 17.2 5.6 17.2 17.1 0 0-78.8.9-109.7 89.9v-89.9c0-10.1 7-17.1 17.2-17.1z" fill="url(#a)"/></svg>