<svg height="140.9" width="125.3" xmlns="http://www.w3.org/2000/svg" xmlns:xlink="http://www.w3.org/1999/xlink"><linearGradient id="a" gradientTransform="matrix(.939922 0 0 .896911 -12.081733 -3.352424)" gradientUnits="userSpaceOnUse" x1="24" x2="73" y1="16.4" y2="73.4"><stop offset="0" stop-color="#fff"/><stop offset="1" stop-color="#fff" stop-opacity="0"/></linearGradient><linearGradient id="b" gradientTransform="scale(1.0801 .92584)" gradientUnits="userSpaceOnUse" spreadMethod="reflect" x1="-54.6" x2="-66.5" y1="63.6" y2="49.7"><stop offset="0" stop-color="#900"/><stop offset="1" stop-color="#fff"/></linearGradient><linearGradient id="c" gradientTransform="matrix(.999352 0 0 1.000649 -151.1197 -.37325)" gradientUnits="userSpaceOnUse" spreadMethod="reflect" x1="52.7" x2="47.1" y1="81.2" y2="75.1"><stop offset="0" stop-color="#eed680"/><stop offset=".3" stop-color="#dfb546"/><stop offset="1" stop-color="#d1940c"/></linearGradient><rect fill="none" height="133.4" rx="22.9" stroke="#000" stroke-linejoin="round" stroke-opacity=".5" stroke-width="7.5" width="117.8" x="3.8" y="3.8"/><rect fill="#bab5ab" height="133.4" rx="22.9" stroke="#000" stroke-width="3.8" width="117.8" x="3.6" y="3.7"/><path d="m72.6 93.1h6.8l4.2 21.2h.1l6.2-21.2h7.3l6.2 21.2h.1l4.2-21.2h6.7l-7.3 28.6h-7.3l-6.1-21.2h-.2l-6.2 21.2h-7.4zm-29.6 28.6v-28.6h17.7c2.4 0 4.4.6 6 1.8 1.8 1.3 2.7 3.1 2.7 5.3 0 1.6-.4 3.1-1.1 4.4-.4.6-.8 1.1-1.4 1.5-.5.4-1.2.9-2 1.3 1.4.5 2.6 1.4 3.5 2.6s1.3 2.6 1.3 4.2c0 2.7-.9 4.7-2.7 6-1.5 1-3.6 1.5-6.3 1.5zm15.8-16.7c1.4 0 2.4-.3 3.1-.9.7-.7 1.1-1.5 1.1-2.7 0-2.4-1.4-3.6-4.2-3.6h-9.6v7.2zm0 12c1.4 0 2.4-.3 3.1-.9.7-.7 1.1-1.6 1.1-2.7 0-2.4-1.4-3.6-4.2-3.6h-9.6v7.2zm-48.2 4.7 12.3-28.6h6.3l12.3 28.6h-6.6l-2.8-6.9h-12l-2.9 6.9zm15.5-21.6-4.2 10.2h8.3z" fill="#fff"/><path d="m100.3 132.6h-75.7c-11.6 0-17.3-5.7-17.3-17.4 0 0 27.6-66.5 110.4-76.6v76.6c0 11.7-5.7 17.4-17.4 17.4z" fill="#fff" fill-opacity=".3"/><path d="m73.3 93.7h6.7l4.2 21.3h.2l6.2-21.3h7.3l6.1 21.3h.2l4.2-21.3h6.7l-7.3 28.7h-7.3l-6.2-21.2h-.1l-6.2 21.2h-7.4zm-29.6 28.7v-28.7h17.7c2.4 0 4.4.6 6 1.8 1.8 1.4 2.7 3.1 2.7 5.4 0 1.6-.4 3-1.2 4.3-.3.6-.8 1.1-1.3 1.6-.5.4-1.2.8-2 1.3 1.4.5 2.6 1.4 3.5 2.6s1.3 2.6 1.3 4.2c0 2.7-.9 4.7-2.7 5.9-1.5 1.1-3.6 1.6-6.3 1.6zm15.8-16.7c1.4 0 2.4-.3 3.1-.9.7-.7 1.1-1.6 1.1-2.7 0-2.4-1.4-3.6-4.2-3.6h-9.7v7.2zm0 12c1.4 0 2.4-.3 3.1-1 .7-.6 1.1-1.5 1.1-2.6 0-2.4-1.4-3.7-4.2-3.7h-9.7v7.3zm-48.2 4.7 12.3-28.7h6.3l12.2 28.7h-6.5l-2.9-7h-11.9l-2.9 7zm15.4-21.7-4.2 10.3h8.4z"/><g stroke="#000" transform="translate(130.96752 -9.864116)"><path d="m-81.3 63.1 5 1.1-2-3.1z" stroke-width=".7"/><path d="m-62.2 51s1.6-.3 1.6-.3 1.4 1.1 1.4 1.1c0-.6-.3-.9-1-1.2 0 0 .1-.3.1-.3.7-.1.9-.1 1.4-.7 0 0-1.9.3-1.9.3s-1.2-.9-1.2-.9c0 .6.2.7.8 1.1 0 0-1.2.9-1.2.9zm.7-2.6s.8.5.8.5c1.5-.4 1.9.4 2.3-1 0 0-.3-.1-.3-.1-.5.7-.9.7-1.7.5 0 0 .2-.8.2-.8s-.4-.1-.4-.1-.2.8-.2.8-.6-.1-.6-.1-.1.3-.1.3zm3.1-2.6c0 .8-.1.9-.9 1.4 0 0 .4-1.6.4-1.6-1.8 0-1.6 1.4-.8 1.9 1.2.4 2.2-.9 1.3-1.7zm-1.6-1s2.2.4 2.2.4.1-.3.1-.3c-1-.2-1.6-.3-1.7-1.3 0 0-.3-.1-.3-.1s.1.9.1.9-.4.4-.4.4zm.3-1.6s2.3.5 2.3.5v-.3c-.3-.1-2.2-.5-1.3-1.2.2-.2 1.2 0 1.6.1v-.4c-.3 0-2-.4-1.4-.9.3-.3 1.3-.1 1.6 0 0 0 .1-.5.1-.5-.5-.1-1.3-.3-1.9-.2-.4.2-.7 1.6-.6 2.1-.1.2.1.2.1.4 0 0-.5.4-.5.4zm.3 2.7s-.2 1.2-.2 1.2c-.4-.5-.5-.9.2-1.2z" fill="none" stroke-width=".2"/><path d="m-90.4 65.7c15.3-16.3 46.8-48.4 58.4-36.6 10.3 12.3-29.6 37.7-46.4 48.5z" fill="url(#b)" stroke-width="3.6"/><path d="m-80.3 76.3s-3.6 7-1.8 9c1.8 1.6-15.7 6.9-18.6 6.6 0 0-2.5 5.4-6 1.8-3.6-3.7 2-6.3 2-6.3 0-4.2 4.7-20.2 6.4-18.4 1.8 1.8 9.1-1.8 9.1-1.8s8.9 9.1 8.9 9.1z" fill="url(#c)" fill-opacity=".8" stroke-width="2.7"/><path d="m-105.5 92.5s14.5-14.3 14.5-14.3" fill="none" stroke-linecap="round" stroke-linejoin="round" stroke-width=".7"/></g><path d="m24.6 7.3h75.7c11.7 0 17.4 5.7 17.4 17.4 0 0-79.3.9-110.4 91.3v-91.3c0-10.3 7-17.4 17.3-17.4z" fill="url(#a)"/></svg>