<svg height="143.6" width="142.4" xmlns="http://www.w3.org/2000/svg" xmlns:xlink="http://www.w3.org/1999/xlink"><linearGradient id="a"><stop offset="0" stop-color="#fbffff" stop-opacity="0"/><stop offset="1" stop-color="#fff"/></linearGradient><linearGradient id="b" gradientTransform="matrix(.784721 0 0 1.059734 -1.397976 -1.721425)" gradientUnits="userSpaceOnUse" x1="78.7" x2="22.4" xlink:href="#a" y1="74.5" y2="11.5"/><linearGradient id="c" gradientTransform="matrix(.666071 0 0 1.24851 -1.397976 -1.721425)" gradientUnits="userSpaceOnUse" x1="157.2" x2="110.2" xlink:href="#a" y1="79.3" y2="16.5"/><g stroke="#000" stroke-linejoin="round"><path d="m73.6 5.7-67.9 17.2.1 89.9h.1v.2l.2-.1 67.4 25 63.2-26.1v-5.2-83.7z" fill="none" stroke-opacity=".5" stroke-width="11.4"/><path d="m136.6 22.9v83.7l-61-13.5-2.1-87.4z" fill="#515151" stroke-linecap="round" stroke-width="6.9"/><path d="m5.6 22.9 67.9-17.2 4.4 90.4-72.1 16.9z" fill="#4a494d" stroke-linecap="round" stroke-width="6.9"/><path d="m73.4 43.8 63.2-20.9-63.1-17.2-67.9 17.2z" fill="#9db8d2" stroke-linecap="round" stroke-width="6.9"/><path d="m136.6 22.9v88.9l-63.2 26.1v-94.1z" fill="#4b6983" stroke-linecap="round" stroke-width="6.9"/><path d="m73.4 43.8v94.1l-67.7-25.1-.1-89.9z" fill="#7590ae" stroke-linecap="round" stroke-width="6.9"/></g><path d="m73.3 9.3-64 16.3v83.6c66.6 26.2 77.7 43.3 60.7-67.8 60.3-22.2 3.3-32.1 3.3-32.1z" fill="url(#b)"/><path d="m76.9 46.5v85.4c.3 0 26.8-10 39.1-22.5 12.6-10.3 16.8-31.1 16.8-31.1v-51.1z" fill="url(#c)" fill-opacity=".8"/><path d="m73.4 43.8v94.1l-67.7-25.1-.1-89.9z" fill="none" stroke="#000" stroke-linecap="round" stroke-linejoin="round" stroke-width="6.9"/><rect fill="#fff" height="42.9" rx="7.4" stroke="#000" stroke-width="3.4" width="101" x="21.4" y="65.4"/><path d="m90.9 101.3v-4.9h8c.9 0 1.7-.1 2.3-.3.4-.1.7-.3 1-.5l.5-.3.5-.5.7-.8.5-1c.1-.4.2-.8.3-1.2s.1-.8.1-1.2v-17.7h6.1v18.1c0 1.7-.3 3.3-.7 4.6-.5 1.4-1.2 2.5-2.2 3.3-.8.7-1.9 1.4-3 1.8l-1.9.5-2.1.1zm-16.1-11.2h-6.5v11.2h-6.1v-28.4h16.4c2.7 0 4.8.7 6.3 2 1.5 1.5 2.3 3.7 2.3 6.6 0 1.2-.1 2.2-.3 3s-.5 1.6-.9 2.3c-.9 1.3-2.2 2.3-4.1 2.9l-.1.1 6.2 11.5h-7.2zm-6.5-12.3v7.9h7.1c1.5 0 2.5-.3 3.2-.8.9-.6 1.4-1.7 1.4-3.2 0-1.3-.5-2.3-1.3-2.9-.8-.7-1.9-1-3.3-1zm-38.2 23.5 12.2-28.4h6.2l12.2 28.4h-6.5l-2.8-6.9h-11.9l-2.8 6.9zm15.3-21.4-4.1 10.1h8.2z"/></svg>