<svg height="145.1" width="143.9" xmlns="http://www.w3.org/2000/svg" xmlns:xlink="http://www.w3.org/1999/xlink"><linearGradient id="a"><stop offset="0" stop-color="#fbffff" stop-opacity="0"/><stop offset="1" stop-color="#fff"/></linearGradient><linearGradient id="b" gradientTransform="matrix(.792857 0 0 1.070722 -1.41247 -1.739273)" gradientUnits="userSpaceOnUse" x1="78.7" x2="22.4" xlink:href="#a" y1="74.5" y2="11.5"/><linearGradient id="c" gradientTransform="matrix(.672977 0 0 1.261455 -1.41247 -1.739273)" gradientUnits="userSpaceOnUse" x1="157.2" x2="110.2" xlink:href="#a" y1="79.3" y2="16.5"/><g stroke="#000" stroke-linejoin="round"><path d="m74.4 5.8-68.6 17.3.1 90.9v.1h.3l68 25.2 63.9-26.4v-5.2-84.6z" fill="none" stroke-opacity=".5" stroke-width="11.5"/><path d="m138.1 23.2v84.5l-61.7-13.6-2.1-88.3z" fill="#515151" stroke-linecap="round" stroke-width="6.9"/><path d="m5.7 23.2 68.6-17.4 4.4 91.3-72.9 17z" fill="#4a494d" stroke-linecap="round" stroke-width="6.9"/><path d="m74.1 44.3 64-21.1-63.8-17.4-68.6 17.4z" fill="#9db8d2" stroke-linecap="round" stroke-width="6.9"/><path d="m138.1 23.2v89.7l-64 26.5v-95.1z" fill="#4b6983" stroke-linecap="round" stroke-width="6.9"/><path d="m74.1 44.3v95.1l-68.3-25.4-.1-90.8z" fill="#7590ae" stroke-linecap="round" stroke-width="6.9"/></g><path d="m74.1 9.4-64.7 16.5v84.5c67.3 26.4 78.5 43.7 61.3-68.5 61-22.5 3.4-32.5 3.4-32.5z" fill="url(#b)"/><path d="m77.7 47v86.3c.3 0 27.1-10.1 39.5-22.8 12.7-10.4 17-31.4 17-31.4v-51.6z" fill="url(#c)" fill-opacity=".8"/><path d="m74.1 44.3v95.1l-68.3-25.4-.1-90.8z" fill="none" stroke="#000" stroke-linecap="round" stroke-linejoin="round" stroke-width="6.9"/><path d="m75.2 11h-.1zm-1.2.1c-.3.1-.5.2-.8 0zm-3.9.5c.3-.1.9-.2 1.2-.1-.6.2-1.2.5-1.6.9 1-.3 1.6-.2 2.7 0 0 0 1 .1 1 .1-.3 0-.7.2-.9.4 0 0 .7.1.7.1s3.1-.4 3.1-.4c.6 0 1.1.1 1.6.3 0 0-.1-.7-.1-.7s1.8.6 1.8.6c1.3.4 2.4.7 3.7 1.3 0 0 1.5.7 1.5.7.2.1.5.3.7.4.4 0 1.2-.3 1.7-.4.3 0 1.3.2 1.5.4s.1.4.6.9c.5.4 1.2.9 1.7 1.2 0 0 .1-.1.1-.1s-1-1.1-1-1.1c.9.3 2.4 1.4 3.1 2 2.6 2.1 4.8 4.6 6.4 7.5.5.9 1 1.9 1.3 2.9.1.3.4.9.4 1.2-.2-.4-.3-.5-.6-.8 0 .6 0 1 .1 1.5.1.2.1.5-.1.7 0 0 1.1 3.1 1.1 3.1 0 .4.3 1 .1 1.3-.3-1.4-1-3.2-1.5-4.5-.2-.5-.8-1.8-1.2-2.1 0 .1 0 .2-.1.3-.3.4-1.1-.2-1.2.4-.1.3.1 1.2.3 1.5.1.4.3.6.6.2h.1c.6.9.4.9.6 1.9 0 0 .5 2.4.5 2.4-.6-.4-.5-1.1-1.1-1.1 0 0 .5 1.5.5 1.5.3.6.4.7.7 1.3-.1.1-.2.1-.3.2-.1.3-.1 1.4 0 1.7 0 .2.2.6.4.7.1 0 .4 0 .5-.1 0 0-.9 2.7-.9 2.7s-.1 1.2-.1 1.2v.6s-.6-1.3-.6-1.3v1.3c-.3-.1-.4 0-.5.3 0 0-.1 1.5-.1 1.5-.3 1.4-1.1 2.6-1.6 3.9-.4.8-.3 1.3-.4 1.6 0 0-.6-1-.6-1-.4.4-1.1 1.6-1 2.1v.5c0 .3-.2.7-.3 1-.1-.7-.1-.4.1-1-.8.5-1.5 1.3-2.2 2-.6.6-1.3 1.2-2 1.7-2.5 1.8-5.4 2.9-8.3 3.2 0 0-1.3.1-1.3.1h-1.2-.6c-1.5-.2-2.8-.3-4.3-.8-.3-.1-1.4-.3-1.7-.5 0 0-.4-.6-.4-.6s-1.4-1-1.4-1c-2.1-1.8-4-3.5-5.2-6.1-.7-1.5-1.1-3-1.2-4.6v-.7-1.3s.1-2.2.1-2.2.6-1.2.6-1.2c.5-1.1.7-2.2 1.4-3.2.5-.9.7-.8 1-1.1 0 0 .5-.8.5-.8.2-.5.7-1.1 1.1-1.4 1.5-1.4 3.5-2.4 5.5-2.7.7-.1 1.4-.1 2.1-.1 1.5 0 2.9.6 4.2 1.2.9.5 1.6 1.1 2.4 1.8.3.3.6.6.7.9-.6-.5-.9-.7-1.6-1.1-1.3-.8-3.2-1.3-4.6-1.3-1.1 0-1.9 0-3 .3-3.8 1-6.7 3.7-7.9 7.5-.3 1-.5 2-.6 2.9v.8.8s.4-.4.4-.4c0 4.7 3.1 9.3 7.2 11.4 1.3.7 3.2 1.4 4.7 1.4 1.9 0 2.8-.1 4.5-.9 0 0 .1.2.1.2.8-.2 1.7-.5 2.3-1 .7-.5 1.3-1.2 2-1.6-.3.3-.6.5-.8 1 .7-.1 1.4-.7 1.8-1.1 0 0 2.3-2 2.3-2 .5-.4 1.3-1 1.4-1.6.1-.3 0-.4 0-.7 0-.4.2-1 .5-1.3.3-.2.8-.3.9-.6 0 0 .5-1.1.5-1.1.3-.8.6-1.6.7-2.5 0-.3.1-.7 0-1 0 0-.5 1-.5 1 .2-1 .4-1.9.4-2.8 0 0 .1-1.1.1-1.1v-.8s-.1-.6-.1-.6v-2.5c0-.8-.2-.4-.3-1v-.9c-.2-.8-.3-1.5-.5-2.2-1-3.2-2.7-5.9-4.9-8.4-2-2.2-4.2-4-7-5-1.7-.6-3.8-1-5.6-1.1 0 0-.6-.1-.6-.1h-.6s-.6-.1-.6-.1h-.3s-1.1.1-1.1.1-1.6.2-1.6.2c-.3 0-.6.2-.9.1.1-.3-.3-.2-.5-.2 0 0-1.5.3-1.5.3-1.9.4-2.4 1.2-4 1.9 0 0-1.5.6-1.5.6-.1 0-.1.1-.2.2 0 0 1.7-.3 1.7-.3-.7.8-2.2.6-3.2.8-1.2.4-2.7 1.6-3.4 2.6.4-.1.7-.3 1-.5 0 .3-.3.6-.4.8-.2 0-.5 0-.6 0-.2 0-.5.1-.6.2-.8.2-1.5.8-2.1 1.2-1.5 1.1-3 2.6-4.2 4-1 1-2 2.2-2.7 3.4 0 0 .7.1.7.1-.4 1-.9 2-1.3 2.9-.5.7-1.1 2-1.4 2.8 0 0-.3 3.3-.3 3.3s-.4 4.4-.4 4.4-.1.6-.1.6-.1 1.8-.1 1.8.1.8.1.8c0 .8.1 1.7.4 2.4 0 0 .6 1.3.6 1.3 0 .5-.2 1.6-.2 2 0 0 .8 1.6.8 1.6h-.4c.2.9.8 2.7 1.6 3.2.6.4 1 0 1.6.7.7.6 1.4 2.2 1.7 3.1-.7-.2-.9-.6-1.4-1.1.2 1 .6 1.8 1.2 2.7 0 0 .6 1 .6 1 .2.4-.3.5-.1.9.1.5.9 1.1 1.3 1.5-.3-.1-.6-.1-.4.3 0 .2.3.7.4.9 0 0 1.7 2.3 1.7 2.3.2.4.7 1 .9 1.4 0 0 .3-.5.3-.5s.1.5.1.5c.3.8.8 1.5 1.3 2.2.3.4.4.8 1 .8.1 0 .5 0 .6.1.1 0 .3.3.4.4.2.3.3.4.6.7.7.7 1.1 1 2 1.4 0 0-.6.8-.6.8.6.1 1.3.4 1.7.8 0 0 .8.6.8.6s1.7.8 1.7.8-.5-1-.5-1c.6.4 1.2 1.2 1.8 1.7.5.6 1.5 1.4 2.3 1.7 1.2.5 2.7.8 4 1 .5.1 2 .4 2.4.6 0 0-1.2-.1-1.2-.1h-1.1-.9c-4.4-.1-9.4-2.2-13-4.7-8.1-5.5-14.1-14.1-16.5-23.6-.6-2.2-.9-4.3-1-6.5 0 0-.1-.7-.1-.7v-1s-.1-.8-.1-.8.1-2.3.1-2.3-.1-.8-.1-.8v-.9s.1-.9.1-.9v-1.4s.1-1 .1-1v-1.5s-.3-1.7-.3-1.7c0-.2.2-.6.3-.8 0 0 .6-2.1.6-2.1.6-1.8 1.8-5.1 2.7-6.8.5.1.8-.2 1-.6.4-.5 1-2 1.2-2.7.2-.3.6-1.3.8-1.5.1-.2.3-.1.4-.3 0 0 .3-.6.3-.6.2-.3.3-.6.5-.9 1-1.3 2.6-2.7 3.8-3.8 0 0 .8-.7.8-.7.3-.4.8-.9 1.2-1.2v.6c2.6-2.2 4.8-3.2 7.8-4.6 0 0 2.3-1 2.3-1s1.5-.6 1.5-.6v.3c.9 0 1.7-.3 2.5-.4zm5 .4c-.3.3-.6.1-.9 0 0 0-.5-.1-.5-.1s1.4.1 1.4.1zm-30.5 15.4c.2.6-.4 1.4-1 1.6.3-.7.4-.8.4-1.6zm-2.2 6.5s-.4 1.6-.4 1.6-.1-1.1-.1-1.1c.1-.5.3-.9.6-1.3 0 0-.1.8-.1.8zm44.3 8.8c0-.1-.1-.3-.1-.4-.1-.3.2-.7.4-.9.2.5.2 1.4 0 1.9-.2-.2-.2-.3-.3-.6zm12.4 3.3v-.4zm1.3.4c-.1.5-.3 1.6-.5 1.9 0 0 .5-2.7.5-2.7.1.2 0 .5 0 .8zm-15.7 1.1c-.3.5-.5.8-.7 1.4.3 0 .4 0 .7-.1.7-.5.7-1 1.2-1.6-.2.7-.7 1.6-1.1 2.2h-.1c-.3-.4-.6-.3-.7-.5-.1-.3 0-.5.1-.7.1-.4.6-1 .9-1.3 0 .2-.2.5-.3.6zm1.3-.6h-.1zm12.9 0s-.1.1-.1.1v-.1zm.5 3.3h-.1zm-.1.1s-.1.1-.1.1v-.1zm-.1.4h-.1zm-.1.3h-.1zm-20.4.3h.6s1-.1 1-.1c.3-.1.5-.1.7-.1-.3.3-.8.8-1.1.9-.2.1-.5 0-.7-.1-.5 0-1.1-.2-1.6-.5v-.1c.5-.2.6-.1 1.1 0zm-13.2.1v.1zm.4.8c.3.4.8 1.1.7 1.6-.3-.6-1-1.6-1.1-2.2 0 0 .4.6.4.6zm-.9 1.9c.4.6 1.5 2.3 1.7 2.8-.7-.5-1.4-1.4-1.8-2.2-.2-.1-.6-.7-.6-.9s.1-.6.1-.8c.2.2.5.8.6 1.1zm2.7 1.9c.9 1 1.6 1.8 2.8 2.5 0 0-.8-.8-.8-.8-.4-.4-1.1-1.3-1.4-1.7.4.3.7.6 1.1.9.7.7 1.5 1.4 2.4 1.9.4.1.7.4 1.1.5v-.3c.3.2.4.3.6.6.4.3 1 .7 1.4 1 .8.4 2.4.7 3.3.8 0 0 2.7.2 2.7.2.3 0 1.1-.1 1.4 0-1.7.6-3.5.5-5.1.2-2.8-.6-5.4-1.9-7.7-3.6-1.2-.9-2.8-2.5-3.4-3.9.5.3 1.2 1.2 1.6 1.7z" fill="#de0551"/><rect fill="#fff" height="43.3" rx="7.4" stroke="#000" stroke-width="3.5" width="102.1" x="21.6" y="66.1"/><path d="m87.7 102.6v-28.7h17.8c2.4 0 4.3.6 5.9 1.8 1.9 1.3 2.8 3.1 2.8 5.3 0 1.6-.4 3.1-1.2 4.4-.3.6-.8 1.1-1.3 1.6-.5.4-1.2.8-2.1 1.2 1.5.6 2.7 1.5 3.6 2.7s1.3 2.6 1.3 4.1c0 2.8-.9 4.7-2.8 6-1.5 1-3.5 1.6-6.2 1.6zm15.9-16.7c1.3 0 2.4-.3 3.1-1 .7-.6 1.1-1.5 1.1-2.6 0-2.5-1.4-3.7-4.2-3.7h-9.7v7.3zm0 12c1.3 0 2.4-.4 3.1-1s1.1-1.5 1.1-2.7c0-2.4-1.4-3.6-4.2-3.6h-9.7v7.3zm-18.8-7.3h-16.8v.2l.4 2.2c.4 1.2 1 2.3 1.9 3.2.2.1.4.3.5.4.3.2.8.4 1.4.7l1.1.3 1.6.1h9.9v4.9h-11.6c-3.9 0-6.9-1.3-9-3.7-2-2.5-3.1-6-3.1-10.7 0-4.6 1.1-8.2 3.1-10.6 2.1-2.5 5.1-3.7 9-3.7h11.6v4.9h-9.9-.7l-.7.1c-.5 0-1 .1-1.5.4-.5.2-1.1.6-1.7 1-.6.6-1.1 1.4-1.6 2.3-.2.7-.5 1.7-.7 3.1v.2h16.8zm-53.7-16.7h15.3c3.8 0 6.8 1.2 8.8 3.7 2 2.4 3 6 3 10.6s-1 8.2-3 10.7c-2 2.4-5 3.7-8.8 3.7h-15.3zm6 23.8h7.3c2.4 0 4.2-.8 5.3-2.3 1.2-1.6 1.7-4 1.7-7.2 0-3.1-.5-5.5-1.6-7-1.1-1.6-2.9-2.4-5.4-2.4h-7.3z"/></svg>