<svg height="140.9" width="125.3" xmlns="http://www.w3.org/2000/svg" xmlns:xlink="http://www.w3.org/1999/xlink"><linearGradient id="a" gradientTransform="matrix(.939922 0 0 .896911 -12.081733 -3.352424)" gradientUnits="userSpaceOnUse" x1="24" x2="73" y1="16.4" y2="73.4"><stop offset="0" stop-color="#fff"/><stop offset="1" stop-color="#fff" stop-opacity="0"/></linearGradient><rect fill="none" height="133.4" rx="22.9" stroke="#000" stroke-linejoin="round" stroke-opacity=".5" stroke-width="7.5" width="117.8" x="3.8" y="3.8"/><rect fill="#bab5ab" height="133.4" rx="22.9" stroke="#000" stroke-width="3.8" width="117.8" x="3.6" y="3.7"/><path d="m100.3 132.6h-75.7c-11.6 0-17.3-5.7-17.3-17.4 0 0 27.6-66.5 110.4-76.6v76.6c0 11.7-5.7 17.4-17.4 17.4z" fill="#fff" fill-opacity=".3"/><path d="m94.3 38.2-69.1 43.2-9.6-14.2 69.1-43.2 23.6-4.7z" fill="#a20000" stroke="#000" stroke-width="2.4"/><path d="m97.5 32.2-5.8-8.5 17-4.6z" stroke="#000" stroke-width="2.4"/><path d="m85.7 25.4-67.3 42.1 2.4 4 66.8-41.8z" fill="#fff" fill-opacity=".7"/><path d="m90.7 33.3-67.5 41.9 2.5 4 66.9-41.6z" fill="#4e4e4a" fill-opacity=".3"/><path d="m66.9 125.1 13.3-31.1h6.9l13.3 31.1h-7.1l-3.1-7.6h-13l-3.1 7.6zm16.8-23.5-4.6 11h9.1zm-21.5 23.5h-6.7v-31.1h6.7zm-39.3-31.1h16.6c4.1 0 7.3 1.3 9.5 4 2.2 2.6 3.3 6.5 3.3 11.5s-1.1 8.8-3.3 11.5c-2.1 2.7-5.3 4.1-9.5 4.1h-16.6zm6.5 25.8h7.9c2.6 0 4.5-.9 5.8-2.6 1.2-1.7 1.9-4.2 1.9-7.7 0-3.4-.6-6-1.8-7.7-1.2-1.6-3.2-2.5-5.9-2.5h-7.9z" fill="#fff"/><path d="m67.6 125.8 13.3-31.2h6.8l13.4 31.2h-7.2l-3-7.6h-13l-3.2 7.6zm16.7-23.6-4.5 11.1h9.1zm-21.4 23.6h-6.7v-31.2h6.7zm-39.3-31.2h16.5c4.2 0 7.4 1.4 9.6 4 2.2 2.7 3.3 6.6 3.3 11.6s-1.1 8.8-3.3 11.5-5.4 4.1-9.6 4.1h-16.5zm6.5 25.8h7.9c2.6 0 4.5-.8 5.8-2.5 1.2-1.7 1.9-4.3 1.9-7.7s-.6-6-1.8-7.7-3.2-2.5-5.9-2.5h-7.9z"/><path d="m111.8 16.7v74.4m0-74.4h-99.2" fill="none" stroke="#000" stroke-linecap="round" stroke-width="1.9"/><path d="m24.6 7.3h75.7c11.7 0 17.4 5.7 17.4 17.4 0 0-79.3.9-110.4 91.3v-91.3c0-10.3 7-17.4 17.3-17.4z" fill="url(#a)"/></svg>