<svg height="140.9" width="125.3" xmlns="http://www.w3.org/2000/svg" xmlns:xlink="http://www.w3.org/1999/xlink"><linearGradient id="a" gradientTransform="matrix(.939922 0 0 .896911 -12.081733 -3.352424)" gradientUnits="userSpaceOnUse" x1="24" x2="73" y1="16.4" y2="73.4"><stop offset="0" stop-color="#fff"/><stop offset="1" stop-color="#fff" stop-opacity="0"/></linearGradient><rect fill="none" height="133.4" rx="22.9" stroke="#000" stroke-linejoin="round" stroke-opacity=".5" stroke-width="7.5" width="117.8" x="3.8" y="3.8"/><rect fill="#bab5ab" height="133.4" rx="22.9" stroke="#000" stroke-width="3.8" width="117.8" x="3.6" y="3.7"/><g fill="#fff"><path d="m100.3 132.6h-75.7c-11.6 0-17.3-5.7-17.3-17.4 0 0 27.6-66.5 110.4-76.6v76.6c0 11.7-5.7 17.4-17.4 17.4z" fill-opacity=".3"/><rect height="69.5" rx="11.1" stroke="#000" stroke-width="5.6" width="92.8" x="15.7" y="15.7"/><path d="m99.6 125.4h-6.7v-31.2h6.7zm-43-31.2h7.7l9.5 24.3h.1l9.8-24.3h7.7l-14.5 31.2h-6.9zm-32.6 0h16.6c4.2 0 7.3 1.4 9.5 4 2.2 2.7 3.3 6.6 3.3 11.6s-1.1 8.8-3.3 11.5c-2.1 2.7-5.3 4.1-9.5 4.1h-16.6zm6.5 25.8h7.9c2.6 0 4.6-.8 5.8-2.5 1.3-1.7 1.9-4.3 1.9-7.7s-.6-6-1.8-7.7-3.1-2.5-5.9-2.5h-7.9z"/></g><path d="m100.3 126h-6.7v-31.1h6.7zm-43-31.1h7.7l9.4 24.3h.2l9.8-24.3h7.7l-14.5 31.1h-6.9zm-32.6 0h16.5c4.2 0 7.4 1.3 9.6 4s3.3 6.5 3.3 11.6c0 5-1.1 8.8-3.3 11.5s-5.3 4-9.6 4h-16.5zm6.5 25.8h7.9c2.6 0 4.5-.8 5.8-2.5 1.2-1.7 1.9-4.3 1.9-7.7 0-3.5-.6-6-1.8-7.7s-3.2-2.5-5.9-2.5h-7.9zm-2.3-62.8 13.3-31.2h6.8l13.4 31.2h-7.2l-3-7.6h-13l-3.2 7.6zm16.7-23.6-4.5 11.1h9.1zm26.3 39.7v-31.1h5.9v8.9h7.1c3.3 0 6 1 8 2.9.8.9 1.5 2.1 2 3.5.6 1.4.8 3 .8 4.7 0 3.7-.9 6.4-2.8 8.3-1.8 1.9-4.5 2.8-8 2.8zm5.9-4.6h6.1c1.7 0 3-.6 4-1.8 1.1-1.1 1.6-2.7 1.6-4.7 0-1.9-.5-3.5-1.5-4.7-.9-1.1-2.3-1.7-4.1-1.7h-6.1z"/><path d="m24.6 7.3h75.7c11.7 0 17.4 5.7 17.4 17.4 0 0-79.3.9-110.4 91.3v-91.3c0-10.3 7-17.4 17.3-17.4z" fill="url(#a)"/></svg>