<svg height="140.9" width="125.3" xmlns="http://www.w3.org/2000/svg" xmlns:xlink="http://www.w3.org/1999/xlink"><linearGradient id="a"><stop offset="0" stop-color="#fff"/><stop offset="1" stop-color="#fff" stop-opacity="0"/></linearGradient><linearGradient id="b" gradientTransform="matrix(.939922 0 0 .896911 -12.081733 -3.352424)" gradientUnits="userSpaceOnUse" x1="24" x2="73" xlink:href="#a" y1="16.4" y2="73.4"/><linearGradient id="c" gradientTransform="scale(1.0801 .92584)" gradientUnits="userSpaceOnUse" spreadMethod="reflect" x1="-54.6" x2="-66.5" y1="63.6" y2="49.7"><stop offset="0" stop-color="#900"/><stop offset="1" stop-color="#fff"/></linearGradient><linearGradient id="d" gradientTransform="matrix(.999352 0 0 1.000649 -151.1197 -.37325)" gradientUnits="userSpaceOnUse" spreadMethod="reflect" x1="52.7" x2="47.1" y1="81.2" y2="75.1"><stop offset="0" stop-color="#eed680"/><stop offset=".3" stop-color="#dfb546"/><stop offset="1" stop-color="#d1940c"/></linearGradient><linearGradient id="e" gradientTransform="scale(1.45548 .687059)" gradientUnits="userSpaceOnUse" x1="52.1" x2="52.1" xlink:href="#a" y1="34.3" y2="105.1"/><rect fill="none" height="133.4" rx="22.9" stroke="#000" stroke-linejoin="round" stroke-opacity=".5" stroke-width="7.5" width="117.8" x="3.8" y="3.8"/><rect fill="#bab5ab" height="133.4" rx="22.9" stroke="#000" stroke-width="3.8" width="117.8" x="3.6" y="3.7"/><path d="m101.4 123.1c-1.2 0-2.3-.2-3.3-.5s-1.9-.8-2.6-1.5c-.3-.3-.7-.7-1-1.2-.2-.2-.3-.4-.4-.6s-.3-.5-.4-1c-.5-1.1-.7-2.4-.7-3.9v-15.2h5.2v14.9c0 .8.1 1.5.3 2 .2.6.5 1.1 1 1.6s1 .8 1.7 1c.6.2 1.2.3 2 .3h6.6v4.1zm-34.8 0h-5.2v-23.9h7.7l6.2 18.5 6.4-18.5h7.7v23.9h-5.2v-17.8h-.1l-6.2 17.8h-5l-6.2-17.8h-.1zm-28.5-23.9h21.5v4.1h-8.2v19.8h-5.1v-19.8h-8.2zm-23.7 23.9v-23.9h5.2v10h9.7v-10h5.1v23.9h-5.1v-10h-9.7v10z" fill="#fff"/><path d="m100.3 132.6h-75.7c-11.6 0-17.3-5.7-17.3-17.4 0 0 27.6-66.5 110.4-76.6v76.6c0 11.7-5.7 17.4-17.4 17.4z" fill="#fff" fill-opacity=".3"/><g stroke="#000" transform="translate(118.96752 -13.864116)"><path d="m-81.3 63.1 5 1.1-2-3.1z" stroke-width=".7"/><path d="m-62.2 51s1.6-.3 1.6-.3 1.4 1.1 1.4 1.1c0-.6-.3-.9-1-1.2 0 0 .1-.3.1-.3.7-.1.9-.1 1.4-.7 0 0-1.9.3-1.9.3s-1.2-.9-1.2-.9c0 .6.2.7.8 1.1 0 0-1.2.9-1.2.9zm.7-2.6s.8.5.8.5c1.5-.4 1.9.4 2.3-1 0 0-.3-.1-.3-.1-.5.7-.9.7-1.7.5 0 0 .2-.8.2-.8s-.4-.1-.4-.1-.2.8-.2.8-.6-.1-.6-.1-.1.3-.1.3zm3.1-2.6c0 .8-.1.9-.9 1.4 0 0 .4-1.6.4-1.6-1.8 0-1.6 1.4-.8 1.9 1.2.4 2.2-.9 1.3-1.7zm-1.6-1s2.2.4 2.2.4.1-.3.1-.3c-1-.2-1.6-.3-1.7-1.3 0 0-.3-.1-.3-.1s.1.9.1.9-.4.4-.4.4zm.3-1.6s2.3.5 2.3.5v-.3c-.3-.1-2.2-.5-1.3-1.2.2-.2 1.2 0 1.6.1v-.4c-.3 0-2-.4-1.4-.9.3-.3 1.3-.1 1.6 0 0 0 .1-.5.1-.5-.5-.1-1.3-.3-1.9-.2-.4.2-.7 1.6-.6 2.1-.1.2.1.2.1.4 0 0-.5.4-.5.4zm.3 2.7s-.2 1.2-.2 1.2c-.4-.5-.5-.9.2-1.2z" fill="none" stroke-width=".2"/><path d="m-90.4 65.7c15.3-16.3 46.8-48.4 58.4-36.6 10.3 12.3-29.6 37.7-46.4 48.5z" fill="url(#c)" stroke-width="3.6"/><path d="m-80.3 76.3s-3.6 7-1.8 9c1.8 1.6-15.7 6.9-18.6 6.6 0 0-2.5 5.4-6 1.8-3.6-3.7 2-6.3 2-6.3 0-4.2 4.7-20.2 6.4-18.4 1.8 1.8 9.1-1.8 9.1-1.8s8.9 9.1 8.9 9.1z" fill="url(#d)" fill-opacity=".8" stroke-width="2.7"/><path d="m-105.5 92.5s14.5-14.3 14.5-14.3" fill="none" stroke-linecap="round" stroke-linejoin="round" stroke-width=".7"/></g><path d="m148.8 80.3a70.9 72.6 0 1 1 -141.7 0 70.9 72.6 0 1 1 141.7 0z" fill-opacity=".3" transform="matrix(.308308 -.25703 .253264 .30379 37.012904 53.695444)"/><path d="m148.8 80.3a70.9 72.6 0 1 1 -141.7 0 70.9 72.6 0 1 1 141.7 0z" fill="#4b6983" stroke="#000" stroke-opacity=".3" stroke-width="4.5" transform="matrix(.289005 -.240937 .237406 .28477 39.765104 54.056854)"/><path d="m130.9 76a39.2 39.2 0 1 1 -78.3 0 39.2 39.2 0 1 1 78.3 0z" fill="#fff" fill-opacity=".2" transform="matrix(.371896 -.310042 -.285351 -.342281 73.714334 118.18528)"/><rect fill="#4b6983" height="20.4" rx="2.7" ry="32.7" transform="matrix(.7680909 -.6403409 .6403409 .7680909 0 0)" width="39.7" x="5.1" y="86.6"/><g fill="none" stroke-linecap="round"><path d="m67.8 51.7c-12.6 12.6-16.5 25.7-8.9 29.3 7.7 3.7 24.1-3.6 36.7-16.2 12.6-12.5 16.5-25.7 8.8-29.3-7.6-3.7-24.1 3.6-36.6 16.2z" stroke="#000" stroke-opacity=".4" stroke-width="7.7"/><path d="m67.4 51.3c-12.6 12.6-16.6 25.7-8.9 29.4 7.7 3.6 24.1-3.7 36.7-16.3 12.5-12.5 16.5-25.7 8.8-29.3-7.7-3.7-24.1 3.6-36.6 16.2z" stroke="#000" stroke-width="6.3"/><path d="m66.4 50.5c-12.5 12.5-16.5 25.7-8.8 29.3 7.7 3.7 24.1-3.6 36.6-16.2 12.6-12.6 16.6-25.7 8.9-29.4-7.7-3.6-24.1 3.7-36.7 16.3z" stroke="#fff" stroke-opacity=".9" stroke-width="1.9"/><path d="m66.3 50.1c-12.5 12.6-16.5 25.8-8.8 29.4 7.7 3.7 24.1-3.6 36.6-16.2 12.6-12.6 16.6-25.7 8.9-29.4-7.7-3.6-24.1 3.7-36.7 16.2z" stroke="#fff" stroke-opacity=".5" stroke-width="2.7"/></g><path d="m148.8 80.3a70.9 72.6 0 0 1 -141.7 2.1" fill="#4b6983" stroke="#000" stroke-opacity=".3" stroke-width="4.5" transform="matrix(-.289005 .240937 -.237406 -.28477 123.03422 62.154904)"/><path d="m133.9 47.5a53.9 25.4 0 1 1 -107.8 0 53.9 25.4 0 1 1 107.8 0z" fill="url(#e)" transform="matrix(.296364 -.247072 .427628 .51294 31.806304 47.231974)"/><path d="m102.1 123.8c-1.2 0-2.3-.2-3.3-.5-1-.4-1.9-.8-2.6-1.5-.4-.3-.7-.7-1.1-1.2-.1-.2-.3-.4-.4-.6s-.2-.5-.4-1c-.4-1.1-.6-2.4-.6-3.9v-15.2h5.2v14.9c0 .8.1 1.5.3 2 .2.6.5 1.1 1 1.6.5.4 1 .8 1.6 1s1.3.3 2 .3h6.7v4.1zm-34.9 0h-5.1v-23.9h7.7l6.2 18.5 6.4-18.5h7.7v23.9h-5.2v-17.9h-.1l-6.2 17.9h-5l-6.2-17.9h-.2zm-28.4-23.9h21.5v4.1h-8.2v19.8h-5.1v-19.8h-8.2zm-23.7 23.9v-23.9h5.2v10h9.7v-10h5.1v23.9h-5.1v-10h-9.7v10z"/><path d="m24.6 7.3h75.7c11.7 0 17.4 5.7 17.4 17.4 0 0-79.3.9-110.4 91.3v-91.3c0-10.3 7-17.4 17.3-17.4z" fill="url(#b)"/></svg>