<svg height="140.9" width="125.3" xmlns="http://www.w3.org/2000/svg" xmlns:xlink="http://www.w3.org/1999/xlink"><linearGradient id="a" gradientTransform="matrix(.939922 0 0 .896911 -12.081733 -3.352424)" gradientUnits="userSpaceOnUse" x1="24" x2="73" y1="16.4" y2="73.4"><stop offset="0" stop-color="#fff"/><stop offset="1" stop-color="#fff" stop-opacity="0"/></linearGradient><linearGradient id="b" gradientTransform="matrix(1.222575 0 0 .738788 -10.653167 -7.742593)" gradientUnits="userSpaceOnUse" x1="12.2" x2="107.8" y1="84" y2="84"><stop offset="0" stop-color="#46a046"/><stop offset=".4" stop-color="#df421e"/><stop offset=".7" stop-color="#ada7c8"/><stop offset="1" stop-color="#eed680"/></linearGradient><g stroke="#000"><rect fill="none" height="133.4" rx="22.9" stroke-linejoin="round" stroke-opacity=".5" stroke-width="7.5" width="117.8" x="3.8" y="3.8"/><rect fill="#df421e" height="133.4" rx="22.9" stroke-width="3.8" width="117.8" x="3.6" y="3.7"/><rect fill="url(#b)" height="67.2" rx="1.3" stroke-width="3.3" width="113.7" x="5.9" y="20.8"/></g><path d="m100.3 132.6h-75.7c-11.6 0-17.3-5.7-17.3-17.4 0 0 27.6-66.5 110.4-76.6v76.6c0 11.7-5.7 17.4-17.4 17.4z" fill="#fff" fill-opacity=".3"/><path d="m24.6 7.3h75.7c11.7 0 17.4 5.7 17.4 17.4 0 0-79.3.9-110.4 91.3v-91.3c0-10.3 7-17.4 17.3-17.4z" fill="url(#a)"/><path d="m89.4 127.6c-4.2 0-7.4-1.3-9.7-4-2.2-2.7-3.3-6.5-3.3-11.6 0-5 1.1-8.9 3.3-11.5 2.3-2.7 5.5-4 9.7-4h16.8v5.3h-14.8c-2.5 0-4.4.9-5.7 2.6s-1.9 4.3-1.9 7.6c0 3.5.6 6 1.8 7.7s3.1 2.6 5.8 2.6h8.2v-7.7h-8.8v-5.1h15.4v18.1zm-37.6-11.1v11.1h-6.7v-31.1h18.7c2.9 0 5.2.8 6.8 2.5 1.7 1.7 2.6 4.2 2.6 7.5 0 3.2-.9 5.7-2.6 7.4-1.6 1.7-3.9 2.6-6.8 2.6zm0-14.7v9.4h9c1.4 0 2.6-.4 3.6-1.2.9-.7 1.4-1.9 1.4-3.5s-.5-2.8-1.4-3.5c-.9-.8-2.1-1.2-3.6-1.2zm-33.4 25.8v-5.3h8.7c1.1 0 1.9-.2 2.6-.4.4-.1.7-.3 1.1-.5l.5-.4.6-.5.8-.9.5-1.1c.1-.4.2-.8.3-1.3s.1-.9.1-1.3v-19.4h6.7v19.8c0 1.9-.3 3.6-.8 5.1s-1.3 2.7-2.3 3.6c-1 .8-2.1 1.5-3.4 2l-2 .4-2.4.2z"/><path d="m88.8 126.9c-4.3 0-7.5-1.3-9.8-4-2.2-2.7-3.3-6.5-3.3-11.5 0-5.1 1.1-9 3.3-11.6 2.3-2.7 5.5-4 9.8-4h16.7v5.4h-14.7c-2.6 0-4.5.8-5.8 2.5s-1.9 4.3-1.9 7.7.6 5.9 1.8 7.6c1.2 1.8 3.1 2.6 5.9 2.6h8.1v-7.7h-8.8v-5.1h15.4v18.1zm-37.6-11.1v11.1h-6.8v-31.1h18.7c2.9 0 5.2.9 6.9 2.6 1.6 1.6 2.5 4.1 2.5 7.4s-.9 5.7-2.5 7.4c-1.7 1.8-4 2.6-6.9 2.6zm0-14.6v9.3h8.9c1.4 0 2.6-.4 3.6-1.1.9-.8 1.4-2 1.4-3.6s-.5-2.7-1.4-3.5c-.9-.7-2.1-1.1-3.6-1.1zm-33.5 25.7v-5.3h8.7c1.1 0 1.9-.1 2.6-.4.4-.1.7-.3 1.1-.5l.5-.4.6-.5.8-.9.6-1.1c.1-.4.2-.8.2-1.3.1-.4.2-.9.2-1.3v-19.4h6.6v19.8c0 1.9-.3 3.6-.8 5.1s-1.3 2.7-2.3 3.6c-1 .8-2.1 1.5-3.4 2l-2 .5-2.3.1z" fill="#fff"/></svg>