<svg height="140.9" width="125.3" xmlns="http://www.w3.org/2000/svg" xmlns:xlink="http://www.w3.org/1999/xlink"><linearGradient id="a" gradientTransform="matrix(.939922 0 0 .896911 -12.081733 -3.352424)" gradientUnits="userSpaceOnUse" x1="24" x2="73" y1="16.4" y2="73.4"><stop offset="0" stop-color="#fff"/><stop offset="1" stop-color="#fff" stop-opacity="0"/></linearGradient><linearGradient id="b" gradientTransform="matrix(.919657 0 0 1.058706 1.338192 1.084837)" gradientUnits="userSpaceOnUse" x1="111.3" x2="107.3" y1="124.3" y2="93.7"><stop offset="0" stop-opacity=".7"/><stop offset="1" stop-opacity="0"/></linearGradient><rect fill="none" height="133.4" rx="22.9" stroke="#000" stroke-linejoin="round" stroke-opacity=".5" stroke-width="7.5" width="117.8" x="3.8" y="3.8"/><rect fill="#83a67f" height="133.4" rx="22.9" stroke="#000" stroke-width="3.8" width="117.8" x="3.6" y="3.7"/><path d="m100.3 132.6h-75.7c-11.6 0-17.3-5.7-17.3-17.4 0 0 27.6-66.5 110.4-76.6v76.6c0 11.7-5.7 17.4-17.4 17.4z" fill="#fff" fill-opacity=".3"/><g transform="matrix(.529753 0 0 .529753 20.520594 10.449884)"><g stroke="#000"><path d="m71.1 10.9c-21.2 1.4-43 25.2-51.5 58.1-9.8 37.6 1.5 73.1 25.2 79.1 6.3 1.6 12.7.9 19.1-1.5l60.4-29.5c5.6-5 12.8-6.5 16.2-17.7 3.4-11.3 1.3-17.2-3.2-25.3l-43.6-54.4c-3.9-3.8-8.5-6.6-13.6-7.9-3-.8-6-1.1-9-.9z" fill="#4b6983" stroke-linejoin="round" stroke-opacity=".5" stroke-width="3.8"/><path d="m92.9 20.6-27.6 124 58.7-28.2c6.8-4.7 12.4-6.3 15.7-17.2 3.3-10.8 1.3-16.6-3.1-24.5z" fill="#7590ae" stroke-linejoin="round" stroke-width="2.5"/><path d="m145.3 78.5a44.3 70.9 0 1 1 -88.6 0 44.3 70.9 0 1 1 88.6 0z" fill="#9db8d2" stroke-width="2.6" transform="matrix(.939421 .239581 -.241243 .932955 -13.93465 -17.0418)"/><path d="m131.1 85.6a28.3 56.7 0 1 1 -56.7 0 28.3 56.7 0 1 1 56.7 0z" fill="#7590ae" stroke-opacity=".5" stroke-width="3.4" transform="matrix(1.131177 .288486 -.265628 1.027252 -33.1397 -37.83387)"/><path d="m131.1 85.6a28.3 56.7 0 1 1 -56.7 0 28.3 56.7 0 1 1 56.7 0z" fill="#7590ae" stroke-width="2.3" transform="matrix(1.131177 .288486 -.265628 1.027252 -33.1397 -37.83387)"/></g><path d="m62 23.5s4.6 19.3 5.6 42.9c.9 23.6-5.1 29.9-7.4 34.3s-7.8 18.9-22.4 32.4c11.7 9.7 42.6 5.6 55.5-55.8 4.9-39-10.9-62.2-31.3-53.8z" fill="#fff" fill-opacity=".5"/><path d="m46.1 51.9a12.4 19.5 0 1 1 -24.8 0 12.4 19.5 0 1 1 24.8 0z" fill="#314e6c" stroke="#000" stroke-opacity=".5" stroke-width="4.5" transform="matrix(.939421 .239581 -.276433 1.069045 58.67646 19.94617)"/><path d="m46.1 51.9a12.4 19.5 0 1 1 -24.8 0 12.4 19.5 0 1 1 24.8 0z" fill="#314e6c" stroke="#000" transform="matrix(.939421 .239581 -.276433 1.069045 58.67646 19.94617)"/><path d="m145.3 78.5a44.3 70.9 0 1 1 -88.6 0 44.3 70.9 0 1 1 88.6 0z" fill="none" stroke="#000" stroke-opacity=".5" stroke-width="3.9" transform="matrix(.939421 .239581 -.241243 .932955 -13.93465 -17.0418)"/><path d="m60.8 21.1c-21.1-2.9-64 74.1-25.7 115.2-29.5-35.3-3.3-106.6 25.7-115.2zm9.8 81.7c-13.7-12.4.3-39 8.7-38.3-14.9 16.9-1.3 33.1-8.7 38.3z" fill="#fff"/><path d="m98.3 109.6-17.5 25.3c-3 4.2 48.6-16.3 57.1-33.1 4.5-16.9-28.6-29.2-28.6-29.2z" fill="url(#b)"/><path d="m65.5 141.4c21.1 3 65.2-76.4 26.9-119.3 26.3 38.5 1.3 106.1-26.9 119.3z" fill-opacity=".3"/><path d="m63.8 139.6c21 3 63.9-74 25.7-115.2 29.4 35.3 3.3 106.6-25.7 115.2z" fill-opacity=".3"/></g><path d="m83.7 95.1h15.5c3.9 0 6.9 1.2 9 3.7 2 2.5 3 6.2 3 10.9 0 4.6-1 8.2-3 10.8-2.1 2.5-5 3.7-9 3.7h-15.5zm6.1 24.2h7.4c2.4 0 4.2-.8 5.4-2.4s1.8-4 1.8-7.2c0-3.3-.6-5.6-1.7-7.2s-2.9-2.4-5.5-2.4h-7.4zm-38.9-9.6c0-2.5.3-4.5.7-6.2.5-1.7 1.3-3.2 2.4-4.4 2.3-3 6.3-4.4 11.7-4.4 5.3 0 9.3 1.4 11.8 4.3.4.6.8 1.2 1.3 2.1 0 .1.1.3.3.8s.4 1 .6 1.6c.6 1.8.8 3.8.8 6.2 0 4.6-1 8.1-3 10.6-2.4 2.9-6.4 4.4-11.8 4.4s-9.4-1.5-11.7-4.4c-2.1-2.4-3.1-5.9-3.1-10.6zm14.8-10.2c-2.5 0-4.5.6-5.9 1.8-1.5 1.5-2.3 4.3-2.3 8.4 0 3.2.4 5.5 1.3 7 1.2 2.1 3.5 3.2 6.9 3.2 3.3 0 5.6-1.1 7-3.2.9-1.5 1.3-3.8 1.3-7 0-3.3-.4-5.6-1.3-7.1-1.3-2.1-3.6-3.1-7-3.1zm-47 24.7h-6.3v-29.1h9.3l7.7 22.5 7.7-22.5h9.4v29.1h-6.3v-21.7h-.1l-7.6 21.7h-6.1l-7.6-21.7h-.1z" fill="#fff"/><path d="m84.4 95.8h15.5c3.9 0 6.9 1.2 8.9 3.7 2.1 2.5 3.1 6.1 3.1 10.8s-1 8.3-3.1 10.8c-2 2.6-5 3.8-8.9 3.8h-15.5zm6.1 24.1h7.4c2.4 0 4.2-.7 5.4-2.3s1.8-4 1.8-7.3c0-3.2-.6-5.6-1.7-7.1-1.1-1.6-3-2.4-5.5-2.4h-7.4zm-38.9-9.6c0-2.4.2-4.4.7-6.1s1.3-3.2 2.3-4.5c2.4-2.9 6.3-4.3 11.8-4.3 5.3 0 9.2 1.4 11.8 4.3.4.5.8 1.2 1.2 2 .1.1.2.4.4.9s.4 1 .6 1.6c.5 1.8.8 3.8.8 6.1 0 4.6-1 8.2-3 10.6-2.4 3-6.4 4.4-11.8 4.4-5.5 0-9.4-1.4-11.8-4.3-2-2.4-3-6-3-10.7zm14.8-10.1c-2.5 0-4.5.6-5.9 1.8-1.6 1.5-2.3 4.3-2.3 8.3 0 3.2.4 5.6 1.3 7.1 1.2 2.1 3.5 3.1 6.9 3.1 3.3 0 5.6-1 6.9-3.1.9-1.5 1.4-3.9 1.4-7.1s-.5-5.5-1.3-7c-1.3-2.1-3.6-3.1-7-3.1zm-47.1 24.7h-6.2v-29.1h9.3l7.7 22.5 7.7-22.5h9.4v29.1h-6.3v-21.7h-.2l-7.5 21.7h-6.1l-7.6-21.7h-.2z"/><path d="m24.6 7.3h75.7c11.7 0 17.4 5.7 17.4 17.4 0 0-79.3.9-110.4 91.3v-91.3c0-10.3 7-17.4 17.3-17.4z" fill="url(#a)"/></svg>