<svg height="140.9" width="125.3" xmlns="http://www.w3.org/2000/svg" xmlns:xlink="http://www.w3.org/1999/xlink"><linearGradient id="a" gradientTransform="matrix(.939922 0 0 .896911 -12.081733 -3.352424)" gradientUnits="userSpaceOnUse" x1="24" x2="73" y1="16.4" y2="73.4"><stop offset="0" stop-color="#fff"/><stop offset="1" stop-color="#fff" stop-opacity="0"/></linearGradient><linearGradient id="b"><stop offset="0" stop-opacity=".4"/><stop offset="1" stop-color="#fff" stop-opacity="0"/></linearGradient><linearGradient id="c" gradientTransform="matrix(.835844 0 0 1.105209 -13.263758 -7.925206)" gradientUnits="userSpaceOnUse" x1="160.6" x2="124" xlink:href="#b" y1="56.2" y2="56.2"/><linearGradient id="d" gradientTransform="matrix(1.11917 0 0 .825418 -13.263758 -7.925206)" gradientUnits="userSpaceOnUse" x1="86.6" x2="40.3" xlink:href="#b" y1="76.5" y2="76.4"/><linearGradient id="e" gradientTransform="matrix(.632812 0 0 1.182913 -5.352506 -7.925206)" gradientUnits="userSpaceOnUse" x1="52.9" x2="17.1" xlink:href="#b" y1="53" y2="53"/><rect fill="none" height="133.4" rx="22.9" stroke="#000" stroke-linejoin="round" stroke-opacity=".5" stroke-width="7.5" width="117.8" x="3.8" y="3.8"/><rect fill="#83a67f" height="133.4" rx="22.9" stroke="#000" stroke-width="3.8" width="117.8" x="3.6" y="3.7"/><path d="m24.6 7.3h75.7c11.7 0 17.4 5.7 17.4 17.4 0 0-79.3.9-110.4 91.3v-91.3c0-10.3 7-17.4 17.3-17.4z" fill="url(#a)"/><path d="m100.3 132.6h-75.7c-11.6 0-17.3-5.7-17.3-17.4 0 0 27.6-66.5 110.4-76.6v76.6c0 11.7-5.7 17.4-17.4 17.4z" fill="#fff" fill-opacity=".3"/><g stroke="#000"><path d="m5.1 75.4h114v13.1h-114z" fill="#6e6d6e" stroke-width="2"/><path d="m5.1 19.7h114v13.1h-114z" fill="#6d6d6d" stroke-width="2"/><path d="m5.5 32.8h22.7v42.6h-22.7z" fill="url(#e)" stroke-width=".5"/><path d="m30.3 32.8h58.1v42.6h-58.1z" fill="url(#d)" stroke-width=".5"/><path d="m90.7 32.8h32.1v42.6h-32.1z" fill="url(#c)" stroke-width=".6"/><path d="m9.4 23h8.6v6.6h-8.6z" fill="#fff" stroke-width=".5"/><path d="m22.4 23h8.6v6.6h-8.6z" fill="#fff" stroke-width=".5"/><path d="m35.3 23h8.6v6.6h-8.6z" fill="#fff" stroke-width=".5"/><path d="m48.2 23h8.6v6.6h-8.6z" fill="#fff" stroke-width=".5"/><path d="m61.1 23h8.6v6.6h-8.6z" fill="#fff" stroke-width=".5"/><path d="m74 23h8.6v6.6h-8.6z" fill="#fff" stroke-width=".5"/><path d="m86.9 23h8.6v6.6h-8.6z" fill="#fff" stroke-width=".5"/><path d="m99.8 23h8.6v6.6h-8.6z" fill="#fff" stroke-width=".5"/><path d="m112.6 23h5.9v6.6h-5.9z" fill="#fff" stroke-width=".4"/><path d="m9.8 79h8.6v6.6h-8.6z" fill="#fff" stroke-width=".5"/><path d="m22.7 79h8.6v6.6h-8.6z" fill="#fff" stroke-width=".5"/><path d="m35.6 79h8.6v6.6h-8.6z" fill="#fff" stroke-width=".5"/><path d="m48.5 79h8.6v6.6h-8.6z" fill="#fff" stroke-width=".5"/><path d="m61.4 79h8.6v6.6h-8.6z" fill="#fff" stroke-width=".5"/><path d="m74.3 79h8.6v6.6h-8.6z" fill="#fff" stroke-width=".5"/><path d="m87.2 79h8.6v6.6h-8.6z" fill="#fff" stroke-width=".5"/><path d="m100.1 79h8.6v6.6h-8.6z" fill="#fff" stroke-width=".5"/><path d="m112.9 79h5.4v6.6h-5.4z" fill="#fff" stroke-width=".4"/></g><path d="m80.7 95.5h6.9l8.4 21.7h.2l8.7-21.7h6.9l-13 27.8h-6.1zm-31.1 13.9c0-2.3.2-4.2.6-5.8.5-1.7 1.3-3.1 2.3-4.3 2.2-2.8 6-4.2 11.2-4.2 5.1 0 8.8 1.4 11.2 4.2.4.5.8 1.1 1.2 1.9.1.1.2.4.4.8.2.5.4 1 .6 1.6.5 1.6.7 3.6.7 5.8 0 4.4-.9 7.8-2.8 10.1-2.4 2.8-6.1 4.2-11.3 4.2s-9-1.4-11.2-4.1c-2-2.3-2.9-5.7-2.9-10.2zm14.1-9.7c-2.4 0-4.3.6-5.6 1.7-1.5 1.5-2.3 4.1-2.3 8 0 3.1.4 5.3 1.3 6.7 1.1 2 3.3 3 6.6 3 3.1 0 5.3-1 6.6-3 .9-1.4 1.3-3.6 1.3-6.7s-.4-5.3-1.3-6.7c-1.2-2-3.4-3-6.6-3zm-44.9 23.6h-6v-27.8h8.9l7.3 21.5 7.4-21.5h8.9v27.8h-6v-20.7h-.1l-7.2 20.7h-5.9l-7.2-20.7h-.1z" fill="#fff"/><path d="m81.4 96.2h6.9l8.4 21.7h.1l8.8-21.7h6.9l-13 27.8h-6.2zm-31.2 13.9c0-2.3.3-4.3.7-5.9.5-1.6 1.2-3 2.2-4.2 2.3-2.8 6-4.2 11.3-4.2 5 0 8.8 1.4 11.2 4.1.4.5.8 1.2 1.2 2 .1.1.2.3.4.8.2.4.3 1 .5 1.5.5 1.7.8 3.7.8 5.9 0 4.4-1 7.8-2.9 10.1-2.3 2.8-6.1 4.2-11.2 4.2-5.3 0-9-1.4-11.3-4.1-1.9-2.3-2.9-5.7-2.9-10.2zm14.2-9.7c-2.5 0-4.3.6-5.7 1.7-1.5 1.5-2.2 4.1-2.2 8 0 3.1.4 5.3 1.2 6.7 1.2 2 3.4 3 6.7 3 3.1 0 5.3-1 6.6-3 .8-1.4 1.3-3.6 1.3-6.7s-.5-5.3-1.3-6.7c-1.2-2-3.4-3-6.6-3zm-45 23.6h-6v-27.8h9l7.3 21.5 7.3-21.5h9v27.8h-6v-20.8h-.1l-7.3 20.8h-5.8l-7.2-20.8h-.2z"/></svg>