<svg height="140.9" width="125.3" xmlns="http://www.w3.org/2000/svg" xmlns:xlink="http://www.w3.org/1999/xlink"><linearGradient id="a" gradientTransform="matrix(.939922 0 0 .896911 -12.081733 -3.352424)" gradientUnits="userSpaceOnUse" x1="24" x2="73" y1="16.4" y2="73.4"><stop offset="0" stop-color="#fff"/><stop offset="1" stop-color="#fff" stop-opacity="0"/></linearGradient><linearGradient id="b" gradientTransform="matrix(.919657 0 0 1.058706 1.338192 1.084837)" gradientUnits="userSpaceOnUse" x1="111.3" x2="107.3" y1="124.3" y2="93.7"><stop offset="0" stop-opacity=".7"/><stop offset="1" stop-opacity="0"/></linearGradient><rect fill="none" height="133.4" rx="22.9" stroke="#000" stroke-linejoin="round" stroke-opacity=".5" stroke-width="7.5" width="117.8" x="3.8" y="3.8"/><rect fill="#83a67f" fill-opacity=".9" height="133.4" rx="22.9" stroke="#000" stroke-width="3.8" width="117.8" x="3.6" y="3.7"/><path d="m100.3 132.6h-75.7c-11.6 0-17.3-5.7-17.3-17.4 0 0 27.6-66.5 110.4-76.6v76.6c0 11.7-5.7 17.4-17.4 17.4z" fill="#fff" fill-opacity=".3"/><path d="m93 125.8c-4.2 0-7.5-1.4-9.7-4-2.3-2.7-3.4-6.6-3.4-11.6 0-5.1 1.1-8.9 3.4-11.5 2.2-2.7 5.4-4 9.7-4h16.7v5.3h-14.7c-2.6 0-4.5.9-5.8 2.6s-1.9 4.2-1.9 7.6.6 6 1.8 7.7 3.2 2.6 5.9 2.6h8.1v-7.7h-8.8v-5.1h15.4v18.1zm-33 0c-4.2 0-7.5-1.4-9.7-4-2.3-2.7-3.4-6.6-3.4-11.6 0-5.1 1.1-8.9 3.4-11.5 2.2-2.7 5.4-4 9.7-4h16.7v5.3h-14.7c-2.6 0-4.5.9-5.8 2.6s-1.9 4.2-1.9 7.6.6 6 1.8 7.7 3.2 2.6 5.9 2.6h8.1v-7.7h-8.8v-5.1h15.4v18.1zm-47.9-15.6c0-2.6.3-4.8.8-6.5.5-1.9 1.3-3.4 2.4-4.8 2.6-3.1 6.8-4.7 12.6-4.7 5.7 0 9.9 1.6 12.6 4.7.4.5.9 1.2 1.3 2.1.1.1.2.4.4.9s.5 1.1.7 1.8c.5 1.8.8 4 .8 6.5 0 4.9-1.1 8.7-3.2 11.3-2.6 3.2-6.8 4.7-12.6 4.7s-10-1.5-12.6-4.6c-2.1-2.6-3.2-6.4-3.2-11.4zm15.8-10.9c-2.7 0-4.8.7-6.3 2-1.7 1.6-2.5 4.6-2.5 8.9 0 3.4.5 5.9 1.4 7.5 1.3 2.3 3.8 3.4 7.4 3.4 3.5 0 6-1.1 7.4-3.4 1-1.6 1.4-4.1 1.4-7.5 0-3.5-.4-6-1.4-7.5-1.3-2.2-3.8-3.4-7.4-3.4z" fill="#fff"/><path d="m93.3 126.1c-4.2 0-7.4-1.3-9.7-4-2.2-2.7-3.4-6.5-3.4-11.5 0-5.1 1.2-9 3.4-11.6 2.2-2.7 5.5-4 9.7-4h16.8v5.4h-14.8c-2.5 0-4.5.8-5.7 2.5-1.3 1.7-2 4.3-2 7.7s.6 5.9 1.8 7.6 3.2 2.6 5.9 2.6h8.1v-7.7h-8.7v-5.1h15.4v18.1zm-33 0c-4.2 0-7.4-1.3-9.7-4-2.2-2.7-3.4-6.5-3.4-11.5 0-5.1 1.2-9 3.4-11.6 2.2-2.7 5.5-4 9.7-4h16.8v5.4h-14.8c-2.5 0-4.5.8-5.7 2.5-1.3 1.7-2 4.3-2 7.7s.6 5.9 1.8 7.6 3.2 2.6 5.9 2.6h8.1v-7.7h-8.7v-5.1h15.4v18.1zm-47.9-15.5c0-2.6.3-4.8.8-6.6s1.4-3.4 2.5-4.8c2.5-3.1 6.7-4.6 12.5-4.6 5.7 0 9.9 1.5 12.6 4.6.5.6.9 1.3 1.4 2.2 0 .1.2.4.4.9s.4 1.1.6 1.7c.6 1.9.8 4.1.8 6.6 0 4.9-1 8.6-3.2 11.3-2.6 3.1-6.8 4.7-12.6 4.7s-10-1.6-12.5-4.7c-2.2-2.5-3.3-6.3-3.3-11.3zm15.8-10.9c-2.7 0-4.8.6-6.2 1.9-1.7 1.6-2.6 4.6-2.6 9 0 3.4.5 5.9 1.4 7.5 1.3 2.2 3.8 3.3 7.4 3.3 3.5 0 6-1.1 7.4-3.3 1-1.6 1.5-4.1 1.5-7.5 0-3.5-.5-6-1.4-7.6-1.4-2.2-3.9-3.3-7.5-3.3z"/><g transform="matrix(.529753 0 0 .529753 20.520594 10.449884)"><g stroke="#000"><path d="m71.1 10.9c-21.2 1.4-43 25.2-51.5 58.1-9.8 37.6 1.5 73.1 25.2 79.1 6.3 1.6 12.7.9 19.1-1.5l60.4-29.5c5.6-5 12.8-6.5 16.2-17.7 3.4-11.3 1.3-17.2-3.2-25.3l-43.6-54.4c-3.9-3.8-8.5-6.6-13.6-7.9-3-.8-6-1.1-9-.9z" fill="#4b6983" stroke-linejoin="round" stroke-opacity=".5" stroke-width="3.8"/><path d="m92.9 20.6-27.6 124 58.7-28.2c6.8-4.7 12.4-6.3 15.7-17.2 3.3-10.8 1.3-16.6-3.1-24.5z" fill="#7590ae" stroke-linejoin="round" stroke-width="2.5"/><path d="m145.3 78.5a44.3 70.9 0 1 1 -88.6 0 44.3 70.9 0 1 1 88.6 0z" fill="#9db8d2" stroke-width="2.6" transform="matrix(.939421 .239581 -.241243 .932955 -13.93465 -17.0418)"/><path d="m131.1 85.6a28.3 56.7 0 1 1 -56.7 0 28.3 56.7 0 1 1 56.7 0z" fill="#7590ae" stroke-opacity=".5" stroke-width="3.4" transform="matrix(1.131177 .288486 -.265628 1.027252 -33.1397 -37.83387)"/><path d="m131.1 85.6a28.3 56.7 0 1 1 -56.7 0 28.3 56.7 0 1 1 56.7 0z" fill="#7590ae" stroke-width="2.3" transform="matrix(1.131177 .288486 -.265628 1.027252 -33.1397 -37.83387)"/></g><path d="m62 23.5s4.6 19.3 5.6 42.9c.9 23.6-5.1 29.9-7.4 34.3s-7.8 18.9-22.4 32.4c11.7 9.7 42.6 5.6 55.5-55.8 4.9-39-10.9-62.2-31.3-53.8z" fill="#fff" fill-opacity=".5"/><path d="m46.1 51.9a12.4 19.5 0 1 1 -24.8 0 12.4 19.5 0 1 1 24.8 0z" fill="#314e6c" stroke="#000" stroke-opacity=".5" stroke-width="4.5" transform="matrix(.939421 .239581 -.276433 1.069045 58.67646 19.94617)"/><path d="m46.1 51.9a12.4 19.5 0 1 1 -24.8 0 12.4 19.5 0 1 1 24.8 0z" fill="#314e6c" stroke="#000" transform="matrix(.939421 .239581 -.276433 1.069045 58.67646 19.94617)"/><path d="m145.3 78.5a44.3 70.9 0 1 1 -88.6 0 44.3 70.9 0 1 1 88.6 0z" fill="none" stroke="#000" stroke-opacity=".5" stroke-width="3.9" transform="matrix(.939421 .239581 -.241243 .932955 -13.93465 -17.0418)"/><path d="m60.8 21.1c-21.1-2.9-64 74.1-25.7 115.2-29.5-35.3-3.3-106.6 25.7-115.2zm9.8 81.7c-13.7-12.4.3-39 8.7-38.3-14.9 16.9-1.3 33.1-8.7 38.3z" fill="#fff"/><path d="m98.3 109.6-17.5 25.3c-3 4.2 48.6-16.3 57.1-33.1 4.5-16.9-28.6-29.2-28.6-29.2z" fill="url(#b)"/><path d="m65.5 141.4c21.1 3 65.2-76.4 26.9-119.3 26.3 38.5 1.3 106.1-26.9 119.3z" fill-opacity=".3"/><path d="m63.8 139.6c21 3 63.9-74 25.7-115.2 29.4 35.3 3.3 106.6-25.7 115.2z" fill-opacity=".3"/></g><path d="m24.6 7.3h75.7c11.7 0 17.4 5.7 17.4 17.4 0 0-79.3.9-110.4 91.3v-91.3c0-10.3 7-17.4 17.3-17.4z" fill="url(#a)"/></svg>