<svg height="140.9" width="125.3" xmlns="http://www.w3.org/2000/svg" xmlns:xlink="http://www.w3.org/1999/xlink"><linearGradient id="a" gradientTransform="matrix(.939922 0 0 .896911 -12.081733 -3.352424)" gradientUnits="userSpaceOnUse" x1="24" x2="73" y1="16.4" y2="73.4"><stop offset="0" stop-color="#fff"/><stop offset="1" stop-color="#fff" stop-opacity="0"/></linearGradient><linearGradient id="b" gradientTransform="matrix(1.222575 0 0 .738788 -10.653167 -7.742593)" gradientUnits="userSpaceOnUse" x1="12.2" x2="107.8" y1="84" y2="84"><stop offset="0" stop-color="#46a046"/><stop offset=".4" stop-color="#df421e"/><stop offset=".7" stop-color="#ada7c8"/><stop offset="1" stop-color="#eed680"/></linearGradient><g stroke="#000"><rect fill="none" height="133.4" rx="22.9" stroke-linejoin="round" stroke-opacity=".5" stroke-width="7.5" width="117.8" x="3.8" y="3.8"/><rect fill="#df421e" height="133.4" rx="22.9" stroke-width="3.8" width="117.8" x="3.6" y="3.7"/><rect fill="url(#b)" height="67.2" rx="1.3" stroke-width="3.3" width="113.7" x="5.9" y="20.8"/></g><path d="m100.3 132.6h-75.7c-11.6 0-17.3-5.7-17.3-17.4 0 0 27.6-66.5 110.4-76.6v76.6c0 11.7-5.7 17.4-17.4 17.4z" fill="#fff" fill-opacity=".3"/><path d="m24.6 7.3h75.7c11.7 0 17.4 5.7 17.4 17.4 0 0-79.3.9-110.4 91.3v-91.3c0-10.3 7-17.4 17.3-17.4z" fill="url(#a)"/><path d="m82.2 126.2h-6.7v-31.1h10l8.2 24.1 8.2-24.1h10v31.1h-6.7v-23.2h-.1l-8.1 23.2h-6.5l-8.1-23.2h-.2zm-38.9 0v-31.1h19.3c2.5 0 4.7.7 6.4 2 2 1.4 3 3.3 3 5.7 0 1.8-.4 3.4-1.3 4.8-.4.6-.8 1.2-1.4 1.7-.6.4-1.3.9-2.2 1.4 1.6.6 2.8 1.5 3.8 2.8s1.4 2.8 1.4 4.5c0 3-1 5.2-3 6.5-1.6 1.2-3.8 1.7-6.7 1.7zm17.2-18.1c1.5 0 2.6-.3 3.4-1 .7-.7 1.1-1.7 1.1-2.9 0-2.6-1.5-4-4.5-4h-10.5v7.9zm0 13c1.5 0 2.6-.3 3.4-1 .7-.7 1.1-1.7 1.1-2.9 0-2.6-1.5-4-4.5-4h-10.5v7.9zm-41.7-6v11.1h-6.7v-31.1h18.6c2.9 0 5.2.9 6.9 2.6s2.5 4.1 2.5 7.4-.8 5.8-2.5 7.5-4 2.5-6.9 2.5zm0-14.6v9.3h8.9c1.5 0 2.7-.4 3.6-1.1.9-.8 1.4-2 1.4-3.6 0-1.5-.5-2.7-1.4-3.5-.9-.7-2.1-1.1-3.6-1.1z"/><path d="m81.5 125.6h-6.7v-31.2h10l8.2 24.1 8.2-24.1h10.1v31.2h-6.8v-23.3h-.1l-8.1 23.3h-6.5l-8.1-23.3h-.2zm-38.9 0v-31.2h19.3c2.6 0 4.7.7 6.4 2 2 1.4 3 3.4 3 5.8 0 1.7-.4 3.3-1.2 4.7-.4.7-.9 1.2-1.5 1.7-.5.5-1.3.9-2.2 1.4 1.6.6 2.9 1.5 3.8 2.8 1 1.4 1.5 2.9 1.5 4.6 0 2.9-1 5.1-3 6.4-1.7 1.2-3.9 1.8-6.8 1.8zm17.2-18.2c1.5 0 2.6-.3 3.4-1s1.1-1.6 1.1-2.9c0-2.6-1.5-3.9-4.5-3.9h-10.5v7.8zm0 13c1.5 0 2.6-.3 3.4-1s1.1-1.6 1.1-2.9c0-2.6-1.5-3.9-4.5-3.9h-10.5v7.8zm-41.7-6v11.2h-6.7v-31.2h18.7c2.8 0 5.1.9 6.8 2.6s2.5 4.2 2.5 7.4c0 3.3-.8 5.8-2.5 7.5s-4 2.5-6.8 2.5zm0-14.6v9.3h8.9c1.5 0 2.7-.3 3.6-1.1 1-.8 1.4-2 1.4-3.6 0-1.5-.4-2.7-1.4-3.4-.9-.8-2.1-1.2-3.6-1.2z" fill="#fff"/></svg>