<svg height="140.9" width="125.3" xmlns="http://www.w3.org/2000/svg" xmlns:xlink="http://www.w3.org/1999/xlink"><linearGradient id="a" gradientTransform="matrix(.939922 0 0 .896911 -12.081733 -3.352424)" gradientUnits="userSpaceOnUse" x1="24" x2="73" y1="16.4" y2="73.4"><stop offset="0" stop-color="#fff"/><stop offset="1" stop-color="#fff" stop-opacity="0"/></linearGradient><rect fill="none" height="133.4" rx="22.9" stroke="#000" stroke-linejoin="round" stroke-opacity=".5" stroke-width="7.5" width="117.8" x="3.8" y="3.8"/><rect fill="#bab5ab" height="133.4" rx="22.9" stroke="#000" stroke-width="3.8" width="117.8" x="3.6" y="3.7"/><path d="m100.3 132.6h-75.7c-11.6 0-17.3-5.7-17.3-17.4 0 0 27.6-66.5 110.4-76.6v76.6c0 11.7-5.7 17.4-17.4 17.4z" fill="#fff" fill-opacity=".3"/><path d="m106.9 98.4h-10c-1.5 0-2.8.2-3.7.5-.5.2-.9.3-1.2.5s-.7.5-1 .8c-.9.8-1.5 1.8-1.9 3l-.3.9v1.1.9h18.1v5.1h-18.1v13h-6.8v-15.6c0-1.3.1-2.5.2-3.5 0-1.1.2-2 .4-2.8.5-2.5 1.7-4.6 3.5-6.2 1.1-1.1 2.5-1.8 4.1-2.3s3.6-.7 6-.7h10.7zm-57.4-5.3h16.5c4.2 0 7.4 1.3 9.6 4 2.1 2.6 3.2 6.5 3.2 11.5s-1.1 8.8-3.2 11.5c-2.2 2.7-5.4 4.1-9.6 4.1h-16.5zm6.5 25.8h7.8c2.7 0 4.6-.9 5.8-2.6 1.3-1.7 1.9-4.2 1.9-7.7 0-3.4-.6-6-1.8-7.7-1.2-1.6-3.1-2.5-5.9-2.5h-7.8zm-31.3-5.8v11.1h-6.7v-31.1h18.7c2.9 0 5.1.8 6.8 2.5s2.5 4.2 2.5 7.5c0 3.2-.8 5.7-2.5 7.4s-3.9 2.6-6.8 2.6zm0-14.7v9.3h8.9c1.5 0 2.7-.3 3.6-1.1 1-.8 1.4-1.9 1.4-3.5s-.4-2.8-1.4-3.5c-.9-.8-2.1-1.2-3.6-1.2z" fill="#fff"/><path d="m107.6 99.1h-10c-1.6 0-2.8.2-3.7.5-.5.2-.9.3-1.2.5-.4.2-.7.5-1 .8-.9.8-1.5 1.8-1.9 3l-.3.9-.1 1.1v.8h18.2v5.2h-18.2v13h-6.7v-15.6c0-1.4.1-2.5.1-3.6.1-1 .2-1.9.4-2.7.6-2.5 1.8-4.6 3.6-6.3 1.1-1 2.4-1.8 4-2.2 1.6-.5 3.7-.8 6.1-.8h10.7zm-57.4-5.4h16.5c4.2 0 7.3 1.4 9.5 4 2.2 2.7 3.3 6.6 3.3 11.6s-1.1 8.8-3.3 11.5c-2.1 2.7-5.3 4.1-9.5 4.1h-16.5zm6.4 25.8h7.9c2.6 0 4.6-.8 5.8-2.5 1.3-1.7 1.9-4.3 1.9-7.7s-.6-6-1.8-7.7-3.1-2.5-5.9-2.5h-7.9zm-31.2-5.8v11.2h-6.7v-31.2h18.7c2.8 0 5.1.9 6.8 2.6s2.5 4.2 2.5 7.4c0 3.3-.8 5.8-2.5 7.5s-4 2.5-6.8 2.5zm0-14.6v9.3h8.9c1.5 0 2.7-.4 3.6-1.1.9-.8 1.4-2 1.4-3.6 0-1.5-.5-2.7-1.4-3.4-.9-.8-2.1-1.2-3.6-1.2z"/><path d="m62.2 14.6c16.2.1-18.9 77.6-32.2 67.3-11.6-15.7 74-32 66.6-21.9-15.1 17.5-44.7-45.4-34.4-45.4z" fill="#fff" stroke="#df421e" stroke-width="5.9"/><path d="m24.6 7.3h75.7c11.7 0 17.4 5.7 17.4 17.4 0 0-79.3.9-110.4 91.3v-91.3c0-10.3 7-17.4 17.3-17.4z" fill="url(#a)"/></svg>