<svg height="140.9" width="125.3" xmlns="http://www.w3.org/2000/svg" xmlns:xlink="http://www.w3.org/1999/xlink"><linearGradient id="a" gradientTransform="matrix(.939922 0 0 .896911 -12.081733 -3.352424)" gradientUnits="userSpaceOnUse" x1="24" x2="73" y1="16.4" y2="73.4"><stop offset="0" stop-color="#fff"/><stop offset="1" stop-color="#fff" stop-opacity="0"/></linearGradient><rect fill="none" height="133.4" rx="22.9" stroke="#000" stroke-linejoin="round" stroke-opacity=".5" stroke-width="7.5" width="117.8" x="3.8" y="3.8"/><rect fill="#bab5ab" height="133.4" rx="22.9" stroke="#000" stroke-width="3.8" width="117.8" x="3.6" y="3.7"/><path d="m100.3 132.6h-75.7c-11.6 0-17.3-5.7-17.3-17.4 0 0 27.6-66.5 110.4-76.6v76.6c0 11.7-5.7 17.4-17.4 17.4z" fill="#fff" fill-opacity=".3"/><path d="m79.7 92.1h28v5.4h-10.7v25.7h-6.6v-25.7h-10.7zm-24.5 20v11.1h-6.8v-31.1h18.7c2.9 0 5.2.9 6.9 2.6 1.6 1.6 2.5 4.1 2.5 7.4s-.9 5.7-2.5 7.4c-1.7 1.7-4 2.6-6.9 2.6zm0-14.6v9.3h8.9c1.4 0 2.6-.4 3.6-1.1.9-.8 1.4-2 1.4-3.6s-.5-2.7-1.4-3.5-2.1-1.1-3.6-1.1zm-31.3 14.6v11.1h-6.7v-31.1h18.7c2.9 0 5.1.9 6.8 2.6 1.7 1.6 2.5 4.1 2.5 7.4s-.8 5.7-2.5 7.4-3.9 2.6-6.8 2.6zm0-14.6v9.3h8.9c1.5 0 2.7-.4 3.6-1.1 1-.8 1.4-2 1.4-3.6s-.4-2.7-1.4-3.5c-.9-.8-2.1-1.1-3.6-1.1z" fill="#fff"/><path d="m80.4 92.8h28v5.3h-10.7v25.8h-6.7v-25.8h-10.6zm-24.6 20v11.1h-6.7v-31.1h18.7c2.9 0 5.2.8 6.8 2.5 1.7 1.7 2.6 4.2 2.6 7.5 0 3.2-.9 5.7-2.6 7.4-1.6 1.7-3.9 2.6-6.8 2.6zm0-14.7v9.4h9c1.4 0 2.6-.4 3.6-1.2.9-.7 1.4-1.9 1.4-3.5s-.5-2.8-1.4-3.5c-1-.8-2.2-1.2-3.6-1.2zm-31.2 14.7v11.1h-6.7v-31.1h18.7c2.8 0 5.1.8 6.8 2.5s2.5 4.2 2.5 7.5c0 3.2-.8 5.7-2.5 7.4s-4 2.6-6.8 2.6zm0-14.7v9.4h8.9c1.5 0 2.7-.4 3.6-1.2.9-.7 1.4-1.9 1.4-3.5s-.5-2.8-1.4-3.5c-.9-.8-2.1-1.2-3.6-1.2z"/><g stroke="#000"><rect fill="#fff" height="55.2" rx="1.1" stroke-linejoin="round" stroke-width="4" width="69.5" x="14.7" y="17.1"/><rect fill="#fff" height="55.2" rx="1.1" stroke-linejoin="round" stroke-width="4" width="69.5" x="25.5" y="27.8"/><g stroke-width="1.3" transform="matrix(.410918 0 0 .410918 54.494264 18.076204)"><path d="m21.9 26v113.1c23.9-18.9 35.6-14.2 56.6 0 21.4 14.1 42.9 14.1 61.2-9.5v-117.8c-18.8 23.6-33 37.7-59.8 14.8-24-18.8-34.1-19.5-58-.6z" stroke-linejoin="round"/><path d="m26.6 30.7v47.1c4.7-9.4 14.2-14.1 23.6-14.1s18.8 4.7 28.3 14.1v-47.1c-9.5-9.4-18.9-14.1-28.3-14.1s-18.9 4.7-23.6 14.1z" fill="#df421e"/><path d="m26.6 82.5v47.1c8.6-5.5 14.2-9.4 23.6-9.4s22.7 8.6 28.3 14.1v-51.8c-9.5-9.4-18.9-14.1-28.3-14.1s-18.9 4.7-23.6 14.1z" fill="#7590ae"/><path d="m83.2 82.5v-47.1c8.6 5.5 14.1 9.4 23.5 9.4 14.2 0 22.8-13.3 28.3-18.8v51.8c-9.4 9.4-18.8 14.1-28.3 14.1-4.7 0-14.1 0-23.5-9.4z" fill="#46a046"/><path d="m83.2 134.3v-47.1c8.6 5.6 14.1 9.5 23.5 9.5 13.3-.9 22.8-8.6 28.3-14.2v47.1c-9.4 9.5-18.8 14.2-28.3 14.2-4.7 0-14.1 0-23.5-9.5z" fill="#eed680"/></g></g><path d="m24.6 7.3h75.7c11.7 0 17.4 5.7 17.4 17.4 0 0-79.3.9-110.4 91.3v-91.3c0-10.3 7-17.4 17.3-17.4z" fill="url(#a)"/></svg>