<svg height="140.9" width="125.3" xmlns="http://www.w3.org/2000/svg" xmlns:xlink="http://www.w3.org/1999/xlink"><linearGradient id="a"><stop offset="0" stop-color="#fff"/><stop offset="1" stop-color="#fff" stop-opacity="0"/></linearGradient><linearGradient id="b" gradientTransform="matrix(.939922 0 0 .896911 -12.081733 -3.352424)" gradientUnits="userSpaceOnUse" x1="24" x2="73" xlink:href="#a" y1="16.4" y2="73.4"/><linearGradient id="c" gradientTransform="matrix(.367729 0 0 1.19512 72.128124 -6.105267)" gradientUnits="userSpaceOnUse" x1="57.5" x2="57.5" xlink:href="#a" y1="55.2" y2="65.4"/><linearGradient id="d" gradientTransform="matrix(.367729 0 0 1.19512 8.930364 -6.105267)" gradientUnits="userSpaceOnUse" x1="57.5" x2="57.5" xlink:href="#a" y1="55.2" y2="65.4"/><linearGradient id="e" gradientTransform="matrix(.936879 0 0 .469089 9.152264 -.801796)" gradientUnits="userSpaceOnUse" x1="56.9" x2="57.2" y1="132" y2="77.1"><stop offset="0" stop-color="#7b7b79"/><stop offset=".8" stop-color="#bdbdbc"/><stop offset="1" stop-color="#fff"/></linearGradient><linearGradient id="f" gradientTransform="matrix(.913447 0 0 .637401 9.152264 -13.146079)" gradientUnits="userSpaceOnUse" x1="60.3" x2="60.3" y1="60.7" y2="98.4"><stop offset="0" stop-color="#e9e9e9"/><stop offset=".4" stop-color="#f4f4f4"/><stop offset="1" stop-color="#fff"/></linearGradient><rect fill="none" height="133.4" rx="22.9" stroke="#000" stroke-linejoin="round" stroke-opacity=".5" stroke-width="7.5" width="117.8" x="3.8" y="3.8"/><rect fill="#bab5ab" height="133.4" rx="22.9" stroke="#000" stroke-width="3.8" width="117.8" x="3.6" y="3.7"/><path d="m100.3 132.6h-75.7c-11.6 0-17.3-5.7-17.3-17.4 0 0 27.6-66.5 110.4-76.6v76.6c0 11.7-5.7 17.4-17.4 17.4z" fill="#fff" fill-opacity=".3"/><path d="m90.7 94.2v5.3h-17.2c-1.1 0-2.1.3-3 1-.7.7-1.1 1.6-1.1 2.7 0 1.3.4 2.3 1.3 2.9.7.6 1.7.9 2.9.9h9.7c2.2 0 4.1.6 5.8 1.8 2.2 1.6 3.3 4.1 3.3 7.3 0 3.1-1.1 5.5-3.3 7.3-1.7 1.3-3.6 1.9-5.8 1.9h-20.6v-5.3h17.6c1 0 2-.4 2.8-1.1.9-.7 1.3-1.7 1.3-2.8s-.4-2-1.3-2.7c-.8-.8-1.8-1.1-2.9-1.1h-9.8c-2.1 0-4.1-.6-5.7-1.8-2.2-1.6-3.3-4.1-3.3-7.3s1.1-5.6 3.3-7.2c1.6-1.2 3.5-1.8 5.7-1.8zm-53.8 20v11.1h-6.8v-31.1h18.7c2.9 0 5.2.8 6.9 2.5 1.6 1.7 2.5 4.2 2.5 7.5 0 3.2-.9 5.7-2.5 7.4-1.7 1.7-4 2.6-6.9 2.6zm0-14.7v9.3h8.9c1.5 0 2.7-.3 3.6-1.1.9-.7 1.4-1.9 1.4-3.5s-.5-2.8-1.4-3.5c-.9-.8-2.1-1.2-3.6-1.2z" fill="#fff"/><path d="m91.4 94.8v5.4h-17.2c-1.1 0-2.1.3-3 1-.7.6-1.1 1.6-1.1 2.7 0 1.3.4 2.3 1.2 2.9s1.7.8 3 .8h9.7c2.1 0 4.1.7 5.8 1.9 2.2 1.6 3.3 4.1 3.3 7.3 0 3.1-1.1 5.5-3.3 7.3-1.7 1.2-3.6 1.9-5.8 1.9h-20.6v-5.4h17.6c1 0 1.9-.3 2.8-1 .8-.8 1.3-1.7 1.3-2.8s-.5-2.1-1.3-2.8-1.8-1-2.9-1h-9.8c-2.2 0-4.1-.6-5.8-1.8-2.1-1.7-3.2-4.1-3.2-7.3s1.1-5.6 3.2-7.2c1.7-1.2 3.6-1.9 5.8-1.9zm-53.9 20v11.2h-6.7v-31.2h18.7c2.9 0 5.2.9 6.8 2.6 1.7 1.7 2.6 4.2 2.6 7.4 0 3.3-.9 5.8-2.6 7.5-1.6 1.7-3.9 2.5-6.8 2.5zm0-14.6v9.3h9c1.4 0 2.6-.3 3.6-1.1.9-.8 1.4-2 1.4-3.6 0-1.5-.5-2.7-1.4-3.4-.9-.8-2.1-1.2-3.6-1.2z"/><rect fill-opacity=".4" height="37.4" rx=".2" width="52.2" x="39" y="17.6"/><g stroke="#000"><rect fill="url(#f)" height="36.4" rx=".2" stroke-linecap="round" stroke-linejoin="round" stroke-width=".7" width="52.2" x="35.8" y="16.6"/><path d="m23 48.2c-4.4 0-7.8 3-7.8 6.7v32.3h93.7v-32.3c0-3.7-3.5-6.7-7.8-6.7z" fill="url(#e)" stroke-width=".7"/><path d="m30.4 57.2c-2.6 0-4.6 2-4.6 4.6v25.1h9.1v-25.1c0-2.6-2-4.6-4.5-4.6zm63 .1c-2.5 0-4.6 2.1-4.6 4.7v25h9.2v-25c0-2.6-2-4.7-4.6-4.7z" fill="#eed680" stroke-width=".8"/><path d="m35.7 80.8h52.6v6.3h-52.6z" fill="#eed680" stroke-width=".7"/><path d="m35.7 65.3h52.6v8.1h-52.6z" stroke-width=".7"/><path d="m35.7 68.4h52.6v11.3h-52.6z" fill="#fff"/></g><path d="m30.1 58.8c-1.6 0-2.9 1.3-2.9 3v16.2h5.9v-16.2c0-1.7-1.3-3-3-3z" fill="url(#d)"/><path d="m93.3 58.8c-1.6 0-2.9 1.3-2.9 3v16.2h5.9v-16.2c0-1.7-1.3-3-3-3z" fill="url(#c)"/><path d="m35.9 81.1h52v1.6h-52z" fill="#fff" fill-opacity=".4"/><path d="m36.4 85.1h51.5v1.6h-51.5z" fill-opacity=".2"/><path d="m19 51.7c-2.5 2.7-3.4-.8-3.4 2.9v31.8h3.1z" fill="#fff" fill-opacity=".4"/><path d="m105.1 51.7c2.6 2.5 3.4 1.4 3.4 4.9v29.8h-3.1z" fill-opacity=".1"/><path d="m24.6 7.3h75.7c11.7 0 17.4 5.7 17.4 17.4 0 0-79.3.9-110.4 91.3v-91.3c0-10.3 7-17.4 17.3-17.4z" fill="url(#b)"/></svg>