<svg height="140.9" width="125.3" xmlns="http://www.w3.org/2000/svg" xmlns:xlink="http://www.w3.org/1999/xlink"><linearGradient id="a" gradientTransform="matrix(.939922 0 0 .896911 -12.081733 -3.352424)" gradientUnits="userSpaceOnUse" x1="24" x2="73" y1="16.4" y2="73.4"><stop offset="0" stop-color="#fff"/><stop offset="1" stop-color="#fff" stop-opacity="0"/></linearGradient><linearGradient id="b" gradientTransform="matrix(1.222575 0 0 .738788 -10.653167 -7.742593)" gradientUnits="userSpaceOnUse" x1="12.2" x2="107.8" y1="84" y2="84"><stop offset="0" stop-color="#46a046"/><stop offset=".4" stop-color="#df421e"/><stop offset=".7" stop-color="#ada7c8"/><stop offset="1" stop-color="#eed680"/></linearGradient><g stroke="#000"><rect fill="none" height="133.4" rx="22.9" stroke-linejoin="round" stroke-opacity=".5" stroke-width="7.5" width="117.8" x="3.8" y="3.8"/><rect fill="#df421e" height="133.4" rx="22.9" stroke-width="3.8" width="117.8" x="3.6" y="3.7"/><rect fill="url(#b)" height="67.2" rx="1.3" stroke-width="3.3" width="113.7" x="5.9" y="20.8"/></g><path d="m100.3 132.6h-75.7c-11.6 0-17.3-5.7-17.3-17.4 0 0 27.6-66.5 110.4-76.6v76.6c0 11.7-5.7 17.4-17.4 17.4z" fill="#fff" fill-opacity=".3"/><path d="m24.6 7.3h75.7c11.7 0 17.4 5.7 17.4 17.4 0 0-79.3.9-110.4 91.3v-91.3c0-10.3 7-17.4 17.3-17.4z" fill="url(#a)"/><path d="m80.5 95.6h16.5c4.2 0 7.4 1.3 9.6 4 2.2 2.6 3.3 6.5 3.3 11.5s-1.1 8.8-3.3 11.5-5.4 4.1-9.6 4.1h-16.5zm6.5 25.8h7.9c2.6 0 4.5-.9 5.8-2.6 1.2-1.7 1.8-4.2 1.8-7.7 0-3.4-.6-6-1.8-7.7-1.1-1.6-3.1-2.5-5.8-2.5h-7.9zm-11.6-25.8v5.3h-17.2c-1.1 0-2.1.3-2.9 1-.8.6-1.2 1.6-1.2 2.7 0 1.3.5 2.3 1.3 2.9.7.6 1.7.9 2.9.9h9.7c2.2 0 4.1.6 5.9 1.8 2.1 1.6 3.2 4.1 3.2 7.3 0 3.1-1.1 5.5-3.2 7.3-1.7 1.2-3.7 1.9-5.9 1.9h-20.6v-5.3h17.6c1 0 2-.4 2.8-1.1.9-.7 1.3-1.7 1.3-2.8s-.4-2.1-1.3-2.7c-.8-.8-1.8-1.1-2.9-1.1h-9.8c-2.1 0-4-.6-5.7-1.8-2.2-1.7-3.3-4.1-3.3-7.3s1.1-5.6 3.3-7.2c1.6-1.2 3.5-1.8 5.7-1.8zm-53.8 20v11.1h-6.7v-31.1h18.6c2.9 0 5.2.8 6.9 2.5s2.5 4.2 2.5 7.5c0 3.2-.8 5.7-2.5 7.4s-4 2.6-6.9 2.6zm0-14.7v9.3h8.9c1.5 0 2.7-.3 3.6-1.1s1.4-1.9 1.4-3.5-.5-2.8-1.4-3.5c-.9-.8-2.1-1.2-3.6-1.2z"/><path d="m79.8 94.9h16.5c4.2 0 7.4 1.3 9.6 4 2.2 2.6 3.3 6.5 3.3 11.5s-1.1 8.9-3.3 11.6-5.3 4-9.6 4h-16.5zm6.5 25.8h7.9c2.6 0 4.5-.9 5.8-2.5 1.2-1.7 1.9-4.3 1.9-7.8 0-3.4-.6-6-1.8-7.6-1.2-1.7-3.2-2.6-5.9-2.6h-7.9zm-11.6-25.8v5.3h-17.2c-1.1 0-2 .4-2.9 1-.8.7-1.1 1.6-1.1 2.8s.4 2.2 1.2 2.8c.7.6 1.7.9 3 .9h9.6c2.2 0 4.1.6 5.9 1.8 2.2 1.6 3.3 4.1 3.3 7.3 0 3.1-1.1 5.6-3.3 7.3-1.7 1.3-3.7 1.9-5.9 1.9h-20.6v-5.3h17.6c1.1 0 2-.4 2.8-1.1.9-.7 1.3-1.6 1.3-2.8 0-1.1-.4-2-1.3-2.7-.8-.7-1.7-1.1-2.9-1.1h-9.7c-2.2 0-4.1-.6-5.8-1.8-2.2-1.6-3.3-4-3.3-7.2s1.1-5.7 3.3-7.3c1.6-1.2 3.5-1.8 5.8-1.8zm-53.8 20v11.1h-6.7v-31.1h18.7c2.8 0 5.1.8 6.8 2.5s2.5 4.2 2.5 7.5c0 3.2-.8 5.7-2.5 7.4s-4 2.6-6.8 2.6zm0-14.7v9.4h8.9c1.5 0 2.7-.4 3.6-1.2 1-.7 1.4-1.9 1.4-3.5s-.4-2.8-1.4-3.5c-.9-.8-2.1-1.2-3.6-1.2z" fill="#fff"/></svg>