<svg height="145.2" width="144" xmlns="http://www.w3.org/2000/svg" xmlns:xlink="http://www.w3.org/1999/xlink"><linearGradient id="a"><stop offset="0" stop-color="#fbffff" stop-opacity="0"/><stop offset="1" stop-color="#fff"/></linearGradient><linearGradient id="b" gradientTransform="matrix(.79345 0 0 1.071523 -1.413525 -1.970002)" gradientUnits="userSpaceOnUse" x1="78.7" x2="22.4" xlink:href="#a" y1="74.5" y2="11.5"/><linearGradient id="c" gradientTransform="matrix(.67348 0 0 1.262399 -1.413525 -1.970002)" gradientUnits="userSpaceOnUse" x1="157.2" x2="110.2" xlink:href="#a" y1="79.3" y2="16.5"/><g stroke="#000" stroke-linejoin="round"><path d="m74.5 5.8-68.7 17.4.1 90.8v.2h.3l68.1 25.2 64-26.4v-5.3-84.5z" fill="none" stroke-opacity=".5" stroke-width="11.5"/><path d="m138.2 23v84.5l-61.8-13.6-2-88.3z" fill="#515151" stroke-linecap="round" stroke-width="6.9"/><path d="m5.7 23 68.7-17.4 4.4 91.3-73 17.1z" fill="#4a494d" stroke-linecap="round" stroke-width="6.9"/><path d="m74.2 44.1 64-21.1-63.8-17.4-68.7 17.4z" fill="#9db8d2" stroke-linecap="round" stroke-width="6.9"/><path d="m138.2 23v89.8l-64 26.4v-95.1z" fill="#4b6983" stroke-linecap="round" stroke-width="6.9"/><path d="m74.2 44.1v95.1l-68.4-25.4-.1-90.8z" fill="#7590ae" stroke-linecap="round" stroke-width="6.9"/></g><path d="m74.1 9.2-64.7 16.5v84.5c67.4 26.4 78.6 43.8 61.4-68.5 61-22.5 3.3-32.5 3.3-32.5z" fill="url(#b)"/><path d="m77.8 46.8v86.4c.2 0 27.1-10.1 39.5-22.8 12.7-10.4 17-31.4 17-31.4v-51.7z" fill="url(#c)" fill-opacity=".8"/><path d="m74.2 44.1v95.1l-68.4-25.4-.1-90.8z" fill="none" stroke="#000" stroke-linecap="round" stroke-linejoin="round" stroke-width="6.9"/><rect fill="#fff" height="43.4" rx="7.4" stroke="#000" stroke-width="3.5" width="102.2" x="21.6" y="65.9"/><path d="m104 90.5h-6.6v11.2h-6.2v-28.7h16.7c2.7 0 4.8.7 6.3 2.1 1.6 1.4 2.4 3.7 2.4 6.6 0 1.2-.1 2.2-.3 3.1-.2.8-.5 1.6-1 2.3-.9 1.3-2.2 2.3-4.1 2.9l-.1.1 6.2 11.6h-7.3zm-6.6-12.5v8h7.3c1.4 0 2.5-.3 3.2-.9.9-.6 1.3-1.6 1.3-3.1 0-1.4-.4-2.4-1.3-3.1-.8-.6-1.9-.9-3.2-.9zm-38.5 23.7 12.2-28.7h6.3l12.3 28.7h-6.5l-2.9-6.9h-12l-2.8 6.9zm15.4-21.6-4.2 10.2h8.4zm-31.7 10.4h-6.6v11.2h-6.2v-28.7h16.6c2.8 0 4.9.7 6.3 2.1 1.6 1.4 2.4 3.7 2.4 6.6 0 1.2-.1 2.2-.3 3.1-.2.8-.5 1.6-1 2.3-.8 1.3-2.2 2.3-4 2.9l-.2.1 6.3 11.6h-7.3zm-6.6-12.5v8h7.2c1.4 0 2.5-.3 3.2-.9.9-.6 1.4-1.6 1.4-3.1 0-1.4-.4-2.4-1.3-3.1-.8-.6-1.9-.9-3.3-.9z"/></svg>