<svg height="145.2" width="144" xmlns="http://www.w3.org/2000/svg" xmlns:xlink="http://www.w3.org/1999/xlink"><linearGradient id="a"><stop offset="0" stop-color="#fbffff" stop-opacity="0"/><stop offset="1" stop-color="#fff"/></linearGradient><linearGradient id="b" gradientTransform="matrix(.79345 0 0 1.071523 -1.413526 -1.740562)" gradientUnits="userSpaceOnUse" x1="78.7" x2="22.4" xlink:href="#a" y1="74.5" y2="11.5"/><linearGradient id="c" gradientTransform="matrix(.67348 0 0 1.262399 -1.413526 -1.740562)" gradientUnits="userSpaceOnUse" x1="157.2" x2="110.2" xlink:href="#a" y1="79.3" y2="16.5"/><linearGradient id="d" gradientTransform="matrix(.696056 0 0 .697625 16.255004 8.305068)" gradientUnits="userSpaceOnUse" x1="41.4" x2="78.8" y1="46.3" y2="85.8"><stop offset="0" stop-color="#fff"/><stop offset="1" stop-color="#fff" stop-opacity="0"/></linearGradient><g stroke-linejoin="round"><path d="m74.5 5.8-68.7 17.4.1 90.8v.2h.3l68.1 25.2 64-26.4v-5.3-84.5z" fill="none" stroke="#000" stroke-opacity=".5" stroke-width="11.5"/><path d="m138.2 23.2v84.5l-61.8-13.5-2-88.4z" fill="#515151" stroke="#000" stroke-linecap="round" stroke-width="6.9"/><path d="m5.7 23.2 68.7-17.4 4.4 91.4-73 17z" fill="#4a494d" stroke="#000" stroke-linecap="round" stroke-width="6.9"/><path d="m74.2 44.3 64-21.1-63.8-17.4-68.7 17.4z" fill="#9db8d2" stroke="#000" stroke-linecap="round" stroke-width="6.9"/><path d="m138.2 23.2v89.8l-64 26.5v-95.2z" fill="#4b6983" stroke="#000" stroke-linecap="round" stroke-width="6.9"/><path d="m74.2 44.3v95.2l-68.4-25.4-.1-90.9z" fill="#7590ae" stroke="#000" stroke-linecap="round" stroke-width="6.9"/></g><path d="m74.1 9.4-64.7 16.5v84.5c67.4 26.5 78.6 43.8 61.4-68.5 61-22.5 3.3-32.5 3.3-32.5z" fill="url(#b)"/><path d="m77.8 47v86.4c.2 0 27.1-10.1 39.5-22.8 12.7-10.4 17-31.4 17-31.4v-51.7z" fill="url(#c)" fill-opacity=".8"/><path d="m74.2 44.3v95.2l-68.4-25.4-.1-90.9z" fill="none" stroke="#000" stroke-linecap="round" stroke-linejoin="round" stroke-width="6.9"/><path d="m81.8 15.2-7.5 10.9-1.9-3.9-2.6 5-8.4-11.7-4 13.4-12.4-6.4 2.4 13.4-4.6-1.6 1.7 5-13.8-2.3 6.7 12.6-13.6 4.4 11.1 7.7-4.2 2.1 4.8 2.4-11.4 8.2 13.4 4-6.5 12.5 13.7-2.5-1.6 4.9 4.2-1.5-2.3 13 13-6.7 4.6 13.9 7.7-11.1 2.1 4.2 2.1-4.3 7.8 11.2 4.2-13.4 12.3 6.5-2.3-14.2 5.3 1.8-1.6-4.7 13.5 2.3-6.5-12.3 13.2-4.1-11.4-8.1 4.7-2.3-4.8-2.4 11.4-8.2-13.4-4 6.5-12.5-13.8 2.5 1.6-4.9-4.6 1.7 2.2-13.5-12.6 6.7zm-10.3 28.1c11.7 0 21.2 9.5 21.2 21.3 0 11.7-9.5 21.2-21.2 21.2-11.8 0-21.3-9.5-21.3-21.2 0-11.8 9.5-21.3 21.3-21.3z" fill="#b39169" stroke="#000" stroke-opacity=".4" stroke-width="2.6"/><path d="m81.8 15.2-7.5 10.9-1.9-3.9-2.6 5-8.4-11.7-4 13.4-12.4-6.4 2.4 13.4-4.6-1.6 1.7 5-13.8-2.3 6.7 12.6-13.6 4.4 11.1 7.7-4.2 2.1 4.8 2.4-11.4 8.2 13.4 4-6.5 12.5 13.7-2.5-1.6 4.9 4.2-1.5-2.3 13 13-6.7 4.6 13.9 7.7-11.1 2.1 4.2 2.1-4.3 7.8 11.2 4.2-13.4 12.3 6.5-2.3-14.2 5.3 1.8-1.6-4.7 13.5 2.3-6.5-12.3 13.2-4.1-11.4-8.1 4.7-2.3-4.8-2.4 11.4-8.2-13.4-4 6.5-12.5-13.8 2.5 1.6-4.9-4.6 1.7 2.2-13.5-12.6 6.7zm-10.3 28.1c11.7 0 21.2 9.5 21.2 21.3 0 11.7-9.5 21.2-21.2 21.2-11.8 0-21.3-9.5-21.3-21.2 0-11.8 9.5-21.3 21.3-21.3z" fill="#b39169" stroke="#000" stroke-width="1.6"/><path d="m80.6 21.2-6.6 9.5-1.7-3.4-2.2 4.4-7.4-10.3-3.6 11.8-10.9-5.6 2.1 11.7-4-1.3 1.5 4.4-12.2-2 5.9 11-11.9 3.9 9.7 6.8-3.7 1.8 4.3 2.1-10.1 7.3 11.8 3.5-5.7 10.9 12.1-2.1-1.4 4.2 3.6-1.3-2 11.5 11.5-5.9 4 12.3 6.7-9.8 1.9 3.7 1.8-3.8 6.9 9.8 3.7-11.8 10.8 5.8-2-12.5 4.7 1.5-1.4-4.1 11.8 2-5.7-10.8 11.6-3.6-10-7.1 4.1-2.1-4.2-2 10.1-7.3-11.8-3.5 5.7-11-12.1 2.2 1.4-4.3-4.1 1.4 1.9-11.8-11 5.9zm-9.1 24.7c10.3 0 18.7 8.3 18.7 18.7 0 10.3-8.4 18.7-18.7 18.7s-18.7-8.4-18.7-18.7c0-10.4 8.4-18.7 18.7-18.7z" fill="url(#d)"/><path d="m48.2 100 11.5-5.9 4 12.3 6.7-9.8 1.9 3.7 1.8-3.8 6.9 9.8 3.7-11.8 10.8 5.8-2-12.5 4.7 1.5-1.4-4.1 11.8 2-5.7-10.8 11.6-3.6-10-7.1 4.1-2.1-4.2-2 10.1-7.3-11.8-3.5 5.7-11zm42-35.4c0 10.3-8.4 18.7-18.7 18.7s18.7-29.1 18.7-18.7z" fill="#fff" fill-opacity=".4"/><rect fill="#fff" height="43.4" rx="7.4" stroke="#000" stroke-width="3.5" width="102.2" x="21.6" y="66.2"/><path d="m90.9 102.9h-6.2v-28.7h9.2l7.5 22.2 7.6-22.2h9.3v28.7h-6.2v-21.4h-.2l-7.4 21.4h-6l-7.5-21.4h-.1zm-28.8-10.3v10.3h-6.2v-28.7h17.2c2.7 0 4.8.8 6.3 2.4 1.6 1.5 2.3 3.8 2.3 6.8s-.7 5.3-2.3 6.9c-1.5 1.5-3.6 2.3-6.3 2.3zm0-13.5v8.6h8.2c1.3 0 2.5-.3 3.3-1 .9-.7 1.3-1.8 1.3-3.3 0-1.4-.4-2.5-1.3-3.2-.8-.7-1.9-1.1-3.3-1.1zm-22.5 12.5h-6.6v11.3h-6.2v-28.7h16.6c2.8 0 4.9.7 6.3 2 1.6 1.5 2.4 3.7 2.4 6.7 0 1.1-.1 2.2-.2 3-.2.9-.6 1.6-1 2.3-.9 1.3-2.2 2.3-4.1 3h-.1l6.2 11.7h-7.3zm-6.6-12.5v8h7.2c1.5 0 2.5-.3 3.2-.8 1-.6 1.4-1.7 1.4-3.2 0-1.4-.4-2.4-1.3-3-.8-.6-1.9-1-3.3-1z"/></svg>