<svg height="140.9" width="125.3" xmlns="http://www.w3.org/2000/svg" xmlns:xlink="http://www.w3.org/1999/xlink"><linearGradient id="a"><stop offset="0" stop-color="#fff"/><stop offset="1" stop-color="#fff" stop-opacity="0"/></linearGradient><linearGradient id="b" gradientTransform="matrix(.939922 0 0 .896911 -12.081742 -3.352424)" gradientUnits="userSpaceOnUse" x1="24" x2="73" xlink:href="#a" y1="16.4" y2="73.4"/><linearGradient id="c"><stop offset="0" stop-opacity=".4"/><stop offset="1" stop-color="#fff" stop-opacity="0"/></linearGradient><linearGradient id="d" gradientTransform="matrix(.831247 0 0 1.015358 -11.788202 -6.961465)" gradientUnits="userSpaceOnUse" x1="160.6" x2="124" xlink:href="#c" y1="56.2" y2="56.2"/><linearGradient id="e" gradientTransform="matrix(1.113015 0 0 .758313 -11.788202 -6.961465)" gradientUnits="userSpaceOnUse" x1="86.6" x2="40.3" xlink:href="#c" y1="76.5" y2="76.4"/><linearGradient id="f" gradientTransform="matrix(.776643 0 0 1.086745 -11.788202 -6.961465)" gradientUnits="userSpaceOnUse" x1="52.9" x2="17.1" xlink:href="#c" y1="53" y2="53"/><linearGradient id="g" gradientTransform="matrix(.939922 0 0 .896911 -184.28468 -22.304086)" gradientUnits="userSpaceOnUse" x1="24" x2="73" xlink:href="#a" y1="16.4" y2="73.4"/><linearGradient id="h" gradientTransform="matrix(.919657 0 0 1.058706 1.338192 1.084837)" gradientUnits="userSpaceOnUse" x1="111.3" x2="107.3" y1="124.3" y2="93.7"><stop offset="0" stop-opacity=".7"/><stop offset="1" stop-opacity="0"/></linearGradient><linearGradient id="i" gradientTransform="scale(1.45548 .687059)" gradientUnits="userSpaceOnUse" x1="52.1" x2="51.5" xlink:href="#a" y1="34.3" y2="103.7"/><rect fill="none" height="133.4" rx="22.9" stroke="#000" stroke-linejoin="round" stroke-opacity=".5" stroke-width="7.5" width="117.8" x="3.8" y="3.8"/><rect fill="#bab5ab" height="133.4" rx="22.9" stroke="#000" stroke-width="3.8" width="117.8" x="3.6" y="3.7"/><path d="m100.3 132.6h-75.7c-11.6 0-17.3-5.7-17.3-17.4 0 0 27.6-66.5 110.4-76.6v76.6c0 11.7-5.7 17.4-17.4 17.4z" fill="#fff" fill-opacity=".3"/><g stroke="#000"><path d="m5.8 69.6h113.3v12h-113.3z" fill="#6e6d6e" stroke-width="1.9"/><path d="m5.8 18.4h113.3v12h-113.3z" fill="#6d6d6d" stroke-width="1.9"/><path d="m1.6 30.4h27.8v39.1h-27.8z" fill="url(#f)" stroke-width=".5"/><path d="m31.5 30.4h57.7v39.1h-57.7z" fill="url(#e)" stroke-width=".5"/><path d="m91.6 30.4h31.9v39.1h-31.9z" fill="url(#d)" stroke-width=".6"/><path d="m10.1 21.4h8.6v6h-8.6z" fill="#fff" stroke-width=".5"/><path d="m23 21.4h8.6v6h-8.6z" fill="#fff" stroke-width=".5"/><path d="m35.8 21.4h8.6v6h-8.6z" fill="#fff" stroke-width=".5"/><path d="m48.6 21.4h8.6v6h-8.6z" fill="#fff" stroke-width=".5"/><path d="m61.5 21.4h8.6v6h-8.6z" fill="#fff" stroke-width=".5"/><path d="m74.3 21.4h8.6v6h-8.6z" fill="#fff" stroke-width=".5"/><path d="m87.1 21.4h8.6v6h-8.6z" fill="#fff" stroke-width=".5"/><path d="m99.9 21.4h8.6v6h-8.6z" fill="#fff" stroke-width=".5"/><path d="m112.7 21.4h5.8v6h-5.8z" fill="#fff" stroke-width=".4"/><path d="m10.5 72.9h8.6v6h-8.6z" fill="#fff" stroke-width=".5"/><path d="m23.3 72.9h8.6v6h-8.6z" fill="#fff" stroke-width=".5"/><path d="m36.2 72.9h8.6v6h-8.6z" fill="#fff" stroke-width=".5"/><path d="m49 72.9h8.6v6h-8.6z" fill="#fff" stroke-width=".5"/><path d="m61.8 72.9h8.6v6h-8.6z" fill="#fff" stroke-width=".5"/><path d="m74.7 72.9h8.6v6h-8.6z" fill="#fff" stroke-width=".5"/><path d="m87.5 72.9h8.6v6h-8.6z" fill="#fff" stroke-width=".5"/><path d="m100.3 72.9h8.6v6h-8.6z" fill="#fff" stroke-width=".5"/><path d="m113 72.9h5.4v6h-5.4z" fill="#fff" stroke-width=".4"/></g><path d="m148.8 80.3a70.9 72.6 0 1 1 -141.7 0 70.9 72.6 0 1 1 141.7 0z" fill-opacity=".3" transform="matrix(.367458 -.306342 .301853 .362073 26.287198 49.880774)"/><path d="m148.8 80.3a70.9 72.6 0 1 1 -141.7 0 70.9 72.6 0 1 1 141.7 0z" fill="#4b6983" stroke="#000" stroke-opacity=".3" stroke-width="4.5" transform="matrix(.344451 -.287162 .282953 .339403 29.567498 50.311524)"/><path d="m130.9 76a39.2 39.2 0 1 1 -78.3 0 39.2 39.2 0 1 1 78.3 0z" fill="#fff" fill-opacity=".2" transform="matrix(.443245 -.369525 -.340097 -.407949 70.030018 126.74318)"/><rect fill="#4b6983" height="24.3" rx="2.7" ry="32.7" transform="matrix(.7680913 -.6403403 .6403403 .7680913 0 0)" width="47.3" x="1.5" y="81"/><path d="m63 47.5c-15 15-19.7 30.7-10.6 35 9.2 4.3 28.8-4.3 43.7-19.3 15-15 19.7-30.7 10.5-35.1-9.1-4.3-28.7 4.4-43.6 19.4z" fill="none" stroke="#000" stroke-linecap="round" stroke-opacity=".4" stroke-width="9.2"/><path d="m62.4 47c-14.9 15-19.6 30.7-10.5 35 9.2 4.3 28.7-4.3 43.7-19.3s19.7-30.7 10.5-35c-9.1-4.4-28.7 4.3-43.7 19.3z" fill="none" stroke="#000" stroke-linecap="round" stroke-width="7.5"/><path d="m61.3 46c-14.9 15-19.6 30.7-10.5 35 9.2 4.3 28.7-4.3 43.7-19.3s19.7-30.7 10.5-35c-9.1-4.3-28.7 4.3-43.7 19.3z" fill="none" stroke="#fff" stroke-linecap="round" stroke-opacity=".9" stroke-width="2.3"/><path d="m61.2 45.7c-15 14.9-19.7 30.6-10.5 35 9.1 4.3 28.7-4.4 43.7-19.4 14.9-15 19.7-30.6 10.5-35-9.2-4.3-28.7 4.4-43.7 19.4z" fill="none" stroke="#fff" stroke-linecap="round" stroke-opacity=".5" stroke-width="3.2"/><path d="m148.8 80.3a70.9 72.6 0 0 1 -141.7 2.1" fill="#4b6983" stroke="#000" stroke-opacity=".3" stroke-width="4.5" transform="matrix(-.344451 .287162 -.282953 -.339403 128.81212 59.963224)"/><path d="m133.9 47.5a53.9 25.4 0 1 1 -107.8 0 53.9 25.4 0 1 1 107.8 0z" fill="url(#i)" transform="matrix(.353223 -.294474 .509669 .611349 20.081778 42.177274)"/><path d="m115.6 98.9h-10c-1.5 0-2.8.2-3.7.5-.4.1-.8.3-1.2.5-.3.2-.7.4-1 .8-.9.8-1.5 1.8-1.9 3l-.3.9v1.1.8h18.1v5.2h-18.1v13h-6.8v-15.6c0-1.4.1-2.6.2-3.6 0-1 .2-1.9.4-2.7.5-2.5 1.7-4.6 3.5-6.3 1.1-1 2.5-1.8 4.1-2.2 1.6-.5 3.6-.8 6-.8h10.7zm-71.8-5.4h7.3l4.6 23.1h.1l6.7-23.1h8l6.6 23.1h.2l4.6-23.1h7.2l-7.9 31.2h-7.9l-6.7-23.1h-.1l-6.8 23.1h-8zm-4.8 0v5.4h-17.2c-1.1 0-2.1.3-3 1-.7.6-1.1 1.5-1.1 2.7 0 1.3.4 2.3 1.2 2.9s1.8.8 3 .8h9.7c2.1 0 4.1.6 5.8 1.9 2.2 1.6 3.3 4 3.3 7.3 0 3.1-1.1 5.5-3.3 7.3-1.7 1.2-3.6 1.9-5.8 1.9h-20.6v-5.4h17.6c1 0 1.9-.3 2.8-1 .8-.8 1.3-1.7 1.3-2.8 0-1.2-.5-2.1-1.3-2.8s-1.8-1-2.9-1h-9.8c-2.2 0-4.1-.6-5.8-1.8-2.1-1.7-3.2-4.1-3.2-7.3s1.1-5.6 3.2-7.2c1.7-1.3 3.6-1.9 5.8-1.9z" fill="#fff"/><path d="m116.3 99.6h-10c-1.5 0-2.8.1-3.7.5-.5.1-.9.3-1.2.5-.4.2-.7.4-1 .8-.9.8-1.5 1.8-1.9 2.9l-.3 1-.1 1.1v.8h18.2v5.1h-18.2v13h-6.7v-15.5c0-1.4.1-2.6.1-3.6.1-1 .3-1.9.4-2.7.6-2.6 1.8-4.7 3.6-6.3 1.1-1 2.4-1.8 4-2.3 1.6-.4 3.7-.7 6.1-.7h10.7zm-71.8-5.4h7.3l4.5 23.1h.2l6.7-23.1h8l6.6 23.1h.2l4.5-23.1h7.3l-7.9 31.1h-8l-6.6-23h-.2l-6.7 23h-8zm-4.8 0v5.4h-17.2c-1.1 0-2.1.3-3 .9-.7.7-1.1 1.6-1.1 2.8 0 1.3.4 2.2 1.2 2.9.7.5 1.7.8 3 .8h9.7c2.1 0 4.1.6 5.8 1.9 2.2 1.6 3.3 4 3.3 7.3 0 3.1-1.1 5.5-3.3 7.3-1.7 1.2-3.6 1.8-5.8 1.8h-20.6v-5.3h17.6c1 0 1.9-.3 2.8-1.1.8-.7 1.2-1.6 1.2-2.7 0-1.2-.4-2.1-1.2-2.8s-1.8-1.1-3-1.1h-9.7c-2.2 0-4.1-.6-5.8-1.8-2.2-1.6-3.3-4-3.3-7.2s1.1-5.6 3.3-7.2c1.7-1.3 3.6-1.9 5.8-1.9z"/><path d="m-147.6-11.6h75.7c11.7 0 17.4 5.7 17.4 17.3 0 0-79.3.9-110.4 91.4v-91.4c0-10.3 7-17.3 17.3-17.3z" fill="url(#g)"/><g transform="matrix(.529753 0 0 .529753 2.453308 5.837204)"><g stroke="#000"><path d="m71.1 10.9c-21.2 1.4-43 25.2-51.5 58.1-9.8 37.6 1.5 73.1 25.2 79.1 6.3 1.6 12.7.9 19.1-1.5l60.4-29.5c5.6-5 12.8-6.5 16.2-17.7 3.4-11.3 1.3-17.2-3.2-25.3l-43.6-54.4c-3.9-3.8-8.5-6.6-13.6-7.9-3-.8-6-1.1-9-.9z" fill="#4b6983" stroke-linejoin="round" stroke-opacity=".5" stroke-width="3.8"/><path d="m92.9 20.6-27.6 124 58.7-28.2c6.8-4.7 12.4-6.3 15.7-17.2 3.3-10.8 1.3-16.6-3.1-24.5z" fill="#7590ae" stroke-linejoin="round" stroke-width="2.5"/><path d="m145.3 78.5a44.3 70.9 0 1 1 -88.6 0 44.3 70.9 0 1 1 88.6 0z" fill="#9db8d2" stroke-width="2.6" transform="matrix(.939421 .239581 -.241243 .932955 -13.93465 -17.0418)"/><path d="m131.1 85.6a28.3 56.7 0 1 1 -56.7 0 28.3 56.7 0 1 1 56.7 0z" fill="#7590ae" stroke-opacity=".5" stroke-width="3.4" transform="matrix(1.131177 .288486 -.265628 1.027252 -33.1397 -37.83387)"/><path d="m131.1 85.6a28.3 56.7 0 1 1 -56.7 0 28.3 56.7 0 1 1 56.7 0z" fill="#7590ae" stroke-width="2.3" transform="matrix(1.131177 .288486 -.265628 1.027252 -33.1397 -37.83387)"/></g><path d="m62 23.5s4.6 19.3 5.6 42.9c.9 23.6-5.1 29.9-7.4 34.3s-7.8 18.9-22.4 32.4c11.7 9.7 42.6 5.6 55.5-55.8 4.9-39-10.9-62.2-31.3-53.8z" fill="#fff" fill-opacity=".5"/><path d="m46.1 51.9a12.4 19.5 0 1 1 -24.8 0 12.4 19.5 0 1 1 24.8 0z" fill="#314e6c" stroke="#000" stroke-opacity=".5" stroke-width="4.5" transform="matrix(.939421 .239581 -.276433 1.069045 58.67646 19.94617)"/><path d="m46.1 51.9a12.4 19.5 0 1 1 -24.8 0 12.4 19.5 0 1 1 24.8 0z" fill="#314e6c" stroke="#000" transform="matrix(.939421 .239581 -.276433 1.069045 58.67646 19.94617)"/><path d="m145.3 78.5a44.3 70.9 0 1 1 -88.6 0 44.3 70.9 0 1 1 88.6 0z" fill="none" stroke="#000" stroke-opacity=".5" stroke-width="3.9" transform="matrix(.939421 .239581 -.241243 .932955 -13.93465 -17.0418)"/><path d="m60.8 21.1c-21.1-2.9-64 74.1-25.7 115.2-29.5-35.3-3.3-106.6 25.7-115.2zm9.8 81.7c-13.7-12.4.3-39 8.7-38.3-14.9 16.9-1.3 33.1-8.7 38.3z" fill="#fff"/><path d="m98.3 109.6-17.5 25.3c-3 4.2 48.6-16.3 57.1-33.1 4.5-16.9-28.6-29.2-28.6-29.2z" fill="url(#h)"/><path d="m65.5 141.4c21.1 3 65.2-76.4 26.9-119.3 26.3 38.5 1.3 106.1-26.9 119.3z" fill-opacity=".3"/><path d="m63.8 139.6c21 3 63.9-74 25.7-115.2 29.4 35.3 3.3 106.6-25.7 115.2z" fill-opacity=".3"/></g><path d="m24.6 7.3h75.7c11.7 0 17.4 5.7 17.4 17.4 0 0-79.3.9-110.4 91.3v-91.3c0-10.3 7-17.4 17.3-17.4z" fill="url(#b)"/></svg>