<svg height="140.9" width="125.3" xmlns="http://www.w3.org/2000/svg"><rect fill="none" height="133.4" rx="22.9" stroke="#000" stroke-linejoin="round" stroke-opacity=".5" stroke-width="7.5" width="117.8" x="3.8" y="3.8"/><rect fill="#bab5ab" height="133.4" rx="22.9" stroke="#000" stroke-width="3.8" width="117.8" x="3.6" y="3.7"/><g transform="translate(-25.210476 -6.067876)"><path d="m41.2 23.7h80v70.6h-80z" fill="#fff" stroke="#000" stroke-width="3.5"/><path d="m42.5 24.9h25.8v11.3h-25.8z" fill="#b8baba" stroke="#717373" stroke-width=".5"/><path d="m42.9 25.2h25.1v.9h-25.1z" fill="#fff"/><path d="m25.6-43.7h10.2v.9h-10.2z" fill="#fff" transform="rotate(90)"/><path d="m43.7 34.9h24.3v.9h-24.3z" fill="#333"/><path d="m26.2-68h8.9v.9h-8.9z" fill="#333" transform="rotate(90)"/><path d="m68.3 24.9h25.8v11.3h-25.8z" fill="#b8baba" stroke="#717373" stroke-width=".5"/><path d="m68.7 25.2h25.1v.9h-25.1z" fill="#fff"/><path d="m25.6-69.5h10.2v.9h-10.2z" fill="#fff" transform="rotate(90)"/><path d="m69.5 34.9h24.3v.9h-24.3z" fill="#333"/><path d="m26.2-93.8h8.9v.9h-8.9z" fill="#333" transform="rotate(90)"/><path d="m94.1 24.9h25.8v11.3h-25.8z" fill="#b8baba" stroke="#717373" stroke-width=".5"/><path d="m94.5 25.2h25.1v.9h-25.1z" fill="#fff"/><path d="m25.6-95.3h10.2v.9h-10.2z" fill="#fff" transform="rotate(90)"/><path d="m95.3 34.9h24.3v.9h-24.3z" fill="#333"/><path d="m26.2-119.6h8.9v.9h-8.9z" fill="#333" transform="rotate(90)"/><path d="m42.5 58.7h25.8v11.3h-25.8z" fill="#b8baba" stroke="#717373" stroke-width=".5"/><path d="m42.9 59h25.1v.9h-25.1z" fill="#fff"/><path d="m59.5-43.7h10.2v.9h-10.2z" fill="#fff" transform="rotate(90)"/><path d="m43.7 68.7h24.3v.9h-24.3z" fill="#333"/><path d="m60-68h8.9v.9h-8.9z" fill="#333" transform="rotate(90)"/><path d="m42.5 36.2h25.8v11.3h-25.8z" fill="#b8baba" stroke="#717373" stroke-width=".5"/><path d="m42.9 36.5h25.1v.9h-25.1z" fill="#fff"/><path d="m36.9-43.7h10.2v.9h-10.2z" fill="#fff" transform="rotate(90)"/><path d="m43.7 46.2h24.3v.9h-24.3z" fill="#333"/><path d="m37.4-68h8.9v.9h-8.9z" fill="#333" transform="rotate(90)"/><path d="m42.5 47.4h25.8v11.3h-25.8z" fill="#b8baba" stroke="#717373" stroke-width=".5"/><path d="m42.9 47.7h25.1v.9h-25.1z" fill="#fff"/><path d="m48.2-43.7h10.2v.9h-10.2z" fill="#fff" transform="rotate(90)"/><path d="m43.7 57.5h24.3v.9h-24.3z" fill="#333"/><path d="m48.7-68h8.9v.9h-8.9z" fill="#333" transform="rotate(90)"/><path d="m42.5 70h25.8v11.3h-25.8z" fill="#b8baba" stroke="#717373" stroke-width=".5"/><path d="m42.9 70.3h25.1v.9h-25.1z" fill="#fff"/><path d="m70.8-43.7h10.2v.9h-10.2z" fill="#fff" transform="rotate(90)"/><path d="m43.7 80h24.3v.9h-24.3z" fill="#333"/><path d="m71.3-68h8.9v.9h-8.9z" fill="#333" transform="rotate(90)"/><path d="m42.5 81.3h25.8v11.3h-25.8z" fill="#b8baba" stroke="#717373" stroke-width=".5"/><path d="m42.9 81.6h25.1v.9h-25.1z" fill="#fff"/><path d="m82.1-43.7h10.2v.9h-10.2z" fill="#fff" transform="rotate(90)"/><path d="m43.7 91.3h24.3v.9h-24.3z" fill="#333"/><path d="m82.6-68h8.9v.9h-8.9z" fill="#333" transform="rotate(90)"/><g fill="#fff" stroke="#717373" stroke-width=".5"><path d="m68 36.4h25.8v11.3h-25.8z"/><path d="m93.8 36.4h25.8v11.3h-25.8z"/><path d="m68 47.7h25.8v11.3h-25.8z"/><path d="m93.8 47.7h25.8v11.3h-25.8z"/><path d="m68 59h25.8v11.3h-25.8z"/><path d="m93.8 59h25.8v11.3h-25.8z"/><path d="m68 70.3h25.8v11.3h-25.8z"/><path d="m93.8 70.3h25.8v11.3h-25.8z"/><path d="m68 81.6h25.8v11.3h-25.8z"/><path d="m93.8 81.6h25.8v11.3h-25.8z"/></g></g><path d="m100.3 132.6h-75.7c-11.6 0-17.3-5.7-17.3-17.4 0 0 27.6-66.5 110.4-76.6v76.6c0 11.7-5.7 17.4-17.4 17.4z" fill="#fff" fill-opacity=".3"/><g fill="none"><path d="m35.4-8.3a40.7 51.4 0 1 1 -81.5 0 40.7 51.4 0 1 1 81.5 0z" stroke="#000" stroke-opacity=".6" stroke-width="26.5" transform="matrix(-.31033979015 0 0 .3440999627 95.4419738019 110.750610224)"/><path d="m35.4-8.3a40.7 51.4 0 1 1 -81.5 0 40.7 51.4 0 1 1 81.5 0zm0 0a40.7 51.4 0 1 1 -81.5 0 40.7 51.4 0 1 1 81.5 0z" stroke="#9db8d2" stroke-width="26.5" transform="matrix(.31033979015 0 0 .3440999627 96.1660094562 108.1757815023)"/><path d="m35.4-8.3a40.7 51.4 0 1 1 -81.5 0 40.7 51.4 0 1 1 81.5 0z" stroke="#000" stroke-opacity=".6" stroke-width="16.3" transform="matrix(.49037068304 0 0 .57769735479 75.98609517688 79.65980213834)"/><path d="m35.4-8.3a40.7 51.4 0 1 1 -81.5 0 40.7 51.4 0 1 1 81.5 0z" stroke="#9db8d2" stroke-width="16.3" transform="matrix(.49037068304 0 0 .57769735479 73.4112914845 77.08499844596)"/><path d="m35.4-8.3a40.7 51.4 0 1 1 -81.5 0 40.7 51.4 0 1 1 81.5 0z" stroke="#000" stroke-opacity=".6" stroke-width="16.3" transform="matrix(.49037068304 0 0 .57769735479 52.9712850264 99.6517337098)"/><path d="m35.4-8.3a40.7 51.4 0 1 1 -81.5 0 40.7 51.4 0 1 1 81.5 0z" stroke="#9db8d2" stroke-width="16.3" transform="matrix(.49037068304 0 0 .57769735479 50.39648133402 97.0769675614)"/></g><g stroke="#000" transform="matrix(.57769735479 0 0 .57769735479 21.82735095757 35.47221964864)"><path d="m4.4 145.7s20.7-53.8 63.9-45.1c10.5-41.8 72.6-38.9 72.6-38.9s-60.9 19.9-63.1 56.6c-30.8-16.3-73.3 27.5-73.4 27.4z" stroke-width="1.7"/><path d="m53.8 72s15.3-38.3 47.4-32.1c7.9-29.9 54-27.8 54-27.8s-45.2 14.2-46.9 40.4c-22.9-11.7-54.5 19.6-54.5 19.5z" stroke-width="1.3"/></g><g fill-opacity=".5" transform="matrix(.57769735479 0 0 .57769735479 23.05339029712 36.28786949721)"><path d="m4.4 145.7s20.7-53.8 63.9-45.1c10.5-41.8 72.6-38.9 72.6-38.9s-60.9 19.9-63.1 56.6c-30.8-16.3-73.3 27.5-73.4 27.4z" stroke-width="1.7"/><path d="m53.8 72s15.3-38.3 47.4-32.1c7.9-29.9 54-27.8 54-27.8s-45.2 14.2-46.9 40.4c-22.9-11.7-54.5 19.6-54.5 19.5z" stroke-width="1.3"/></g><path d="m24.6 7.3h75.7c11.7 0 17.4 5.7 17.4 17.4 0 0-79.3.9-110.4 91.3v-91.3c0-10.3 7-17.4 17.3-17.4z" fill="none"/></svg>