<svg height="145.3" width="144.1" xmlns="http://www.w3.org/2000/svg" xmlns:xlink="http://www.w3.org/1999/xlink"><linearGradient id="a"><stop offset="0" stop-color="#fbffff" stop-opacity="0"/><stop offset="1" stop-color="#fff"/></linearGradient><linearGradient id="b" gradientTransform="matrix(.794075 0 0 1.072367 -1.414638 -1.741933)" gradientUnits="userSpaceOnUse" x1="78.7" x2="22.4" xlink:href="#a" y1="74.5" y2="11.5"/><linearGradient id="c" gradientTransform="matrix(.674011 0 0 1.263393 -1.414638 -1.741933)" gradientUnits="userSpaceOnUse" x1="157.2" x2="110.2" xlink:href="#a" y1="79.3" y2="16.5"/><g stroke="#000" stroke-linejoin="round"><path d="m74.5 5.8-68.7 17.4.1 90.9v.2h.3l68.1 25.2 64.1-26.4v-5.3-84.6z" fill="none" stroke-opacity=".5" stroke-width="11.5"/><path d="m138.3 23.2v84.6l-61.8-13.6-2.1-88.4z" fill="#515151" stroke-linecap="round" stroke-width="6.9"/><path d="m5.7 23.2 68.7-17.4 4.4 91.5-73 17z" fill="#4a494d" stroke-linecap="round" stroke-width="6.9"/><path d="m74.3 44.4 64-21.2-63.9-17.4-68.7 17.4z" fill="#9db8d2" stroke-linecap="round" stroke-width="6.9"/><path d="m138.3 23.2v89.9l-64 26.5v-95.2z" fill="#4b6983" stroke-linecap="round" stroke-width="6.9"/><path d="m74.3 44.4v95.2l-68.5-25.5-.1-90.9z" fill="#7590ae" stroke-linecap="round" stroke-width="6.9"/></g><path d="m74.2 9.4-64.8 16.5v84.6c67.4 26.5 78.6 43.8 61.4-68.6 61.1-22.5 3.4-32.5 3.4-32.5z" fill="url(#b)"/><path d="m77.8 47v86.5c.3 0 27.2-10.1 39.6-22.8 12.7-10.4 17-31.5 17-31.5v-51.7z" fill="url(#c)" fill-opacity=".8"/><path d="m74.3 44.4v95.2l-68.5-25.5-.1-90.9z" fill="none" stroke="#000" stroke-linecap="round" stroke-linejoin="round" stroke-width="6.9"/><rect fill="#fff" height="43.4" rx="7.4" stroke="#000" stroke-width="3.5" width="102.2" x="21.6" y="66.2"/><path d="m102.8 91.2h-6.6v11.3h-6.2v-28.7h16.7c2.7 0 4.8.7 6.3 2 1.6 1.5 2.4 3.7 2.4 6.7 0 1.2-.1 2.2-.3 3-.2.9-.6 1.6-1 2.4-.9 1.3-2.2 2.2-4.1 2.9h-.1l6.2 11.7h-7.3zm-6.6-12.5v8h7.2c1.5 0 2.5-.3 3.3-.8.9-.6 1.3-1.7 1.3-3.2 0-1.4-.4-2.4-1.3-3-.8-.6-1.9-1-3.3-1zm-38.6 23.8 12.3-28.7h6.3l12.3 28.7h-6.6l-2.8-7h-12l-2.9 7zm15.5-21.7-4.2 10.2h8.3zm-43.5-7h25.8v4.9h-9.8v23.8h-6.2v-23.8h-9.8z"/></svg>