<svg height="145.2" width="144" xmlns="http://www.w3.org/2000/svg" xmlns:xlink="http://www.w3.org/1999/xlink"><linearGradient id="a"><stop offset="0" stop-color="#fbffff" stop-opacity="0"/><stop offset="1" stop-color="#fff"/></linearGradient><linearGradient id="b" gradientTransform="matrix(.79345 0 0 1.071523 -1.413527 -1.740575)" gradientUnits="userSpaceOnUse" x1="78.7" x2="22.4" xlink:href="#a" y1="74.5" y2="11.5"/><linearGradient id="c" gradientTransform="matrix(.67348 0 0 1.262399 -1.413527 -1.740575)" gradientUnits="userSpaceOnUse" x1="157.2" x2="110.2" xlink:href="#a" y1="79.3" y2="16.5"/><g stroke="#000" stroke-linejoin="round"><path d="m74.5 5.8-68.7 17.4.1 90.8v.2h.3l68.1 25.2 64-26.4v-5.3-84.5z" fill="none" stroke-opacity=".5" stroke-width="11.5"/><path d="m138.2 23.2v84.5l-61.8-13.5-2-88.4z" fill="#515151" stroke-linecap="round" stroke-width="6.9"/><path d="m5.7 23.2 68.7-17.4 4.4 91.4-73 17z" fill="#4a494d" stroke-linecap="round" stroke-width="6.9"/><path d="m74.2 44.3 64-21.1-63.8-17.4-68.7 17.4z" fill="#9db8d2" stroke-linecap="round" stroke-width="6.9"/><path d="m138.2 23.2v89.8l-64 26.5v-95.2z" fill="#4b6983" stroke-linecap="round" stroke-width="6.9"/><path d="m74.2 44.3v95.2l-68.4-25.4-.1-90.9z" fill="#7590ae" stroke-linecap="round" stroke-width="6.9"/></g><path d="m74.1 9.4-64.7 16.5v84.5c67.4 26.5 78.6 43.8 61.4-68.5 61-22.5 3.3-32.5 3.3-32.5z" fill="url(#b)"/><path d="m77.8 47v86.4c.2 0 27.1-10.1 39.5-22.8 12.7-10.4 17-31.4 17-31.4v-51.7z" fill="url(#c)" fill-opacity=".8"/><path d="m74.2 44.3v95.2l-68.4-25.4-.1-90.9z" fill="none" stroke="#000" stroke-linecap="round" stroke-linejoin="round" stroke-width="6.9"/><rect fill="#fff" height="43.4" rx="7.4" stroke="#000" stroke-width="3.5" width="102.2" x="21.6" y="66.2"/><path d="m114.6 97.3v4.9h-26.2v-4.9l17.5-18.7v-.2h-17.5v-4.9h26.2v4.9l-17.5 18.7v.2zm-55.9 4.9v-28.7h17.8c2.3 0 4.3.6 5.9 1.8 1.8 1.3 2.7 3.1 2.7 5.3 0 1.6-.3 3.1-1.1 4.4-.4.6-.8 1.1-1.3 1.6-.5.4-1.2.8-2.1 1.2 1.5.6 2.7 1.5 3.6 2.7.8 1.2 1.3 2.6 1.3 4.1 0 2.8-.9 4.8-2.8 6-1.5 1.1-3.6 1.6-6.2 1.6zm15.9-16.7c1.3 0 2.3-.3 3.1-1 .7-.6 1-1.5 1-2.6 0-2.5-1.4-3.7-4.1-3.7h-9.7v7.3zm0 12c1.3 0 2.3-.3 3.1-1 .7-.6 1-1.5 1-2.6 0-2.5-1.4-3.7-4.1-3.7h-9.7v7.3zm-43.9-24h25.8v4.9h-9.8v23.8h-6.1v-23.8h-9.9z"/></svg>