<svg height="140.9" width="125.3" xmlns="http://www.w3.org/2000/svg" xmlns:xlink="http://www.w3.org/1999/xlink"><linearGradient id="a" gradientTransform="matrix(.939922 0 0 .896911 -12.081733 -3.352424)" gradientUnits="userSpaceOnUse" x1="24" x2="73" y1="16.4" y2="73.4"><stop offset="0" stop-color="#fff"/><stop offset="1" stop-color="#fff" stop-opacity="0"/></linearGradient><rect fill="none" height="133.4" rx="22.9" stroke="#000" stroke-linejoin="round" stroke-opacity=".5" stroke-width="7.5" width="117.8" x="3.8" y="3.8"/><rect fill="#bab5ab" height="133.4" rx="22.9" stroke="#000" stroke-width="3.8" width="117.8" x="3.6" y="3.7"/><path d="m100.3 132.6h-75.7c-11.6 0-17.3-5.7-17.3-17.4 0 0 27.6-66.5 110.4-76.6v76.6c0 11.7-5.7 17.4-17.4 17.4z" fill="#fff" fill-opacity=".3"/><g transform="translate(129.40822 18.610464)"><rect fill="#fff" height="69.5" rx="11.1" stroke="#000" stroke-width="5.6" width="92.8" x="-112.6" y="-2.9"/><path d="m-99.4 39.3 13.3-31.1h6.9l13.3 31.1h-7.1l-3.1-7.6h-13l-3.1 7.6zm16.8-23.5-4.6 11.1h9.1zm26.2 39.7v-31.2h5.9v8.9h7.1c3.3 0 6 1 8 2.9.8.9 1.5 2.1 2 3.5.6 1.4.8 3 .8 4.7 0 3.7-.9 6.4-2.8 8.3-1.8 1.9-4.5 2.9-8 2.9zm5.9-4.7h6.1c1.7 0 3-.6 4-1.7 1.1-1.2 1.6-2.8 1.6-4.8 0-1.9-.5-3.5-1.5-4.6-.9-1.2-2.3-1.8-4.1-1.8h-6.1z"/></g><path d="m73.2 94.1h7.9l6.9 10.7 6.8-10.7h8l-11.4 15.6 11.4 15.5h-8l-6.8-10.7-6.9 10.7h-7.9l11.4-15.5zm-14.6 25.9c.3.2.8.4 1.4.6.7.1 1.5.2 2.4.2h8.4v4.4h-9.2c-3.5 0-6.2-.9-8.1-2.8-1.9-2-2.9-4.7-2.9-8.3 0-1.8.3-3.4.7-4.7.5-1.3 1.2-2.5 2.2-3.5 1.9-1.9 4.6-2.9 8.1-2.9h9.2v4.5h-8.4l-2.2.1c-.4.1-1 .3-1.6.7-.3.2-.7.7-1 1.3l-.4 2v.3h13.6v4.5h-13.6v.2l.2 1.4.2.6c.2.6.5 1 1 1.4zm-38.3-25.9h28v5.4h-10.7v25.7h-6.6v-25.7h-10.7z" fill="#fff"/><path d="m73.9 94.8h7.9l6.9 10.7 6.8-10.7h7.9l-11.4 15.6 11.4 15.5h-7.9l-6.8-10.7-6.9 10.7h-7.9l11.4-15.5zm-14.6 25.8c.3.3.8.5 1.4.6.7.2 1.5.3 2.4.3h8.4v4.4h-9.3c-3.4 0-6.1-.9-8-2.9-1.9-1.9-2.9-4.6-2.9-8.2 0-1.9.2-3.4.7-4.7s1.2-2.5 2.2-3.5c1.9-1.9 4.6-2.9 8-2.9h9.3v4.5h-8.4l-2.2.1c-.4.1-1 .3-1.6.7-.4.2-.7.7-1 1.3l-.4 2-.1.3h13.7v4.4h-13.7l.1.3.2 1.3.2.7c.1.5.5 1 1 1.3zm-38.3-25.8h28v5.4h-10.7v25.7h-6.7v-25.7h-10.6z"/><path d="m24.6 7.3h75.7c11.7 0 17.4 5.7 17.4 17.4 0 0-79.3.9-110.4 91.3v-91.3c0-10.3 7-17.4 17.3-17.4z" fill="url(#a)"/></svg>