<svg height="140.9" width="125.3" xmlns="http://www.w3.org/2000/svg" xmlns:xlink="http://www.w3.org/1999/xlink"><linearGradient id="a" gradientTransform="matrix(.939922 0 0 .896911 -12.081733 -3.352424)" gradientUnits="userSpaceOnUse" x1="24" x2="73" y1="16.4" y2="73.4"><stop offset="0" stop-color="#fff"/><stop offset="1" stop-color="#fff" stop-opacity="0"/></linearGradient><linearGradient id="b" gradientTransform="matrix(1.222575 0 0 .738788 -10.653167 -7.742593)" gradientUnits="userSpaceOnUse" x1="12.2" x2="107.8" y1="84" y2="84"><stop offset="0" stop-color="#46a046"/><stop offset=".4" stop-color="#df421e"/><stop offset=".7" stop-color="#ada7c8"/><stop offset="1" stop-color="#eed680"/></linearGradient><g stroke="#000"><rect fill="none" height="133.4" rx="22.9" stroke-linejoin="round" stroke-opacity=".5" stroke-width="7.5" width="117.8" x="3.8" y="3.8"/><rect fill="#df421e" height="133.4" rx="22.9" stroke-width="3.8" width="117.8" x="3.6" y="3.7"/><rect fill="url(#b)" height="67.2" rx="1.3" stroke-width="3.3" width="113.7" x="5.9" y="20.8"/></g><path d="m100.3 132.6h-75.7c-11.6 0-17.3-5.7-17.3-17.4 0 0 27.6-66.5 110.4-76.6v76.6c0 11.7-5.7 17.4-17.4 17.4z" fill="#fff" fill-opacity=".3"/><path d="m24.6 7.3h75.7c11.7 0 17.4 5.7 17.4 17.4 0 0-79.3.9-110.4 91.3v-91.3c0-10.3 7-17.4 17.3-17.4z" fill="url(#a)"/><path d="m109.6 101.2h-10c-1.6 0-2.8.1-3.7.5-.5.1-.9.3-1.2.5-.4.2-.7.4-1 .8-.9.8-1.6 1.8-2 2.9l-.2 1-.1 1.1v.8h18.2v5.1h-18.2v13h-6.7v-15.5c0-1.4 0-2.6.1-3.6s.2-1.9.4-2.7c.6-2.6 1.8-4.7 3.5-6.3 1.2-1 2.5-1.8 4.1-2.3s3.6-.7 6.1-.7h10.7zm-28.1 0h-10c-1.5 0-2.8.1-3.7.5-.5.1-.9.3-1.2.5-.4.2-.7.4-1 .8-.9.8-1.5 1.8-1.9 2.9l-.3 1-.1 1.1v.8h18.2v5.1h-18.2v13h-6.7v-15.5c0-1.4.1-2.6.1-3.6.1-1 .3-1.9.4-2.7.6-2.6 1.8-4.7 3.6-6.3 1.1-1 2.4-1.8 4-2.3s3.7-.7 6.1-.7h10.7zm-29.6 25.7h-6.7v-31.1h6.7zm-37-31.1h28v5.4h-10.7v25.7h-6.7v-25.7h-10.6z"/><path d="m108.9 100.5h-10c-1.5 0-2.8.2-3.7.5-.5.1-.9.3-1.2.5-.4.2-.7.4-1 .8-.9.8-1.5 1.8-1.9 2.9l-.3 1-.1 1.1v.8h18.2v5.1h-18.2v13h-6.7v-15.5c0-1.4.1-2.6.1-3.6.1-1 .3-1.9.4-2.7.6-2.6 1.8-4.6 3.6-6.3 1.1-1 2.4-1.8 4-2.3 1.6-.4 3.7-.7 6.1-.7h10.7zm-28.1 0h-10c-1.5 0-2.8.2-3.7.5-.5.1-.9.3-1.2.5s-.7.4-1 .8c-.9.8-1.5 1.8-1.9 2.9l-.3 1v1.1.8h18.1v5.1h-18.1v13h-6.8v-15.5c0-1.4.1-2.6.2-3.6 0-1 .2-1.9.4-2.7.5-2.6 1.7-4.6 3.5-6.3 1.1-1 2.5-1.8 4.1-2.3 1.6-.4 3.6-.7 6-.7h10.7zm-29.5 25.7h-6.8v-31.1h6.8zm-37.1-31.1h28v5.4h-10.7v25.7h-6.6v-25.7h-10.7z" fill="#fff"/></svg>