<svg height="140.9" width="125.3" xmlns="http://www.w3.org/2000/svg" xmlns:xlink="http://www.w3.org/1999/xlink"><linearGradient id="a"><stop offset="0" stop-color="#fff"/><stop offset="1" stop-color="#fff" stop-opacity="0"/></linearGradient><linearGradient id="b" gradientTransform="matrix(.939922 0 0 .896911 -12.081733 -3.352424)" gradientUnits="userSpaceOnUse" x1="24" x2="73" xlink:href="#a" y1="16.4" y2="73.4"/><linearGradient id="c" gradientTransform="scale(.998875 1.001127)" gradientUnits="userSpaceOnUse" x1="41.4" x2="78.8" xlink:href="#a" y1="46.3" y2="85.8"/><rect fill="none" height="133.4" rx="22.9" stroke="#000" stroke-linejoin="round" stroke-opacity=".5" stroke-width="7.5" width="117.8" x="3.8" y="3.8"/><rect fill="#bab5ab" height="133.4" rx="22.9" stroke="#000" stroke-width="3.8" width="117.8" x="3.6" y="3.7"/><path d="m100.3 132.6h-75.7c-11.6 0-17.3-5.7-17.3-17.4 0 0 27.6-66.5 110.4-76.6v76.6c0 11.7-5.7 17.4-17.4 17.4z" fill="#fff" fill-opacity=".3"/><g transform="matrix(.693678 0 0 .693678 7.207424 7.945104)"><path d="m94.1 9.9-10.8 15.6-2.7-5.6-3.7 7.2-12.1-16.7-5.7 19.2-17.8-9.3 3.3 19.3-6.4-2.3 2.4 7.2-19.8-3.2 9.6 18-19.6 6.3 16 11.1-6 3 6.8 3.3-16.3 11.9 19.1 5.7-9.2 17.9 19.7-3.5-2.3 6.9 5.9-2.1-3.2 18.7 18.7-9.7 6.4 20.1 11.1-16 3.1 6.1 3-6.2 11.2 16 6-19.2 17.7 9.4-3.4-20.4 7.7 2.5-2.4-6.7 19.4 3.2-9.3-17.5 18.9-5.9-16.4-11.7 6.8-3.3-6.8-3.4 16.3-11.8-19.2-5.8 9.3-17.8-19.7 3.5 2.2-7-6.6 2.4 3.2-19.4-18.1 9.6zm-14.8 40.3c16.8 0 30.5 13.7 30.5 30.5 0 16.9-13.7 30.5-30.5 30.5-16.9 0-30.5-13.6-30.5-30.5-.1-16.8 13.6-30.5 30.5-30.5z" fill="#b39169" stroke="#000" stroke-opacity=".4" stroke-width="3.8"/><path d="m94.1 9.9-10.8 15.6-2.7-5.6-3.7 7.2-12.1-16.7-5.7 19.2-17.8-9.3 3.3 19.3-6.4-2.3 2.4 7.2-19.8-3.2 9.6 18-19.6 6.3 16 11.1-6 3 6.8 3.3-16.3 11.9 19.1 5.7-9.2 17.9 19.7-3.5-2.3 6.9 5.9-2.1-3.2 18.7 18.7-9.7 6.4 20.1 11.1-16 3.1 6.1 3-6.2 11.2 16 6-19.2 17.7 9.4-3.4-20.4 7.7 2.5-2.4-6.7 19.4 3.2-9.3-17.5 18.9-5.9-16.4-11.7 6.8-3.3-6.8-3.4 16.3-11.8-19.2-5.8 9.3-17.8-19.7 3.5 2.2-7-6.6 2.4 3.2-19.4-18.1 9.6zm-14.8 40.3c16.8 0 30.5 13.7 30.5 30.5 0 16.9-13.7 30.5-30.5 30.5-16.9 0-30.5-13.6-30.5-30.5-.1-16.8 13.6-30.5 30.5-30.5z" fill="#b39169" stroke="#000" stroke-width="2.3"/><path d="m92.3 18.5-9.4 13.7-2.5-5-3.2 6.4-10.6-14.7-5.1 16.9-15.6-8.2 2.9 16.9-5.7-1.9 2.2 6.3-17.5-2.9 8.5 15.9-17.2 5.5 14 9.8-5.3 2.6 6.1 3-14.4 10.4 16.8 5-8.1 15.8 17.3-3.1-2 6.1 5.2-1.9-2.8 16.5 16.4-8.5 5.7 17.6 9.7-14 2.7 5.3 2.7-5.5 9.9 14.1 5.3-16.9 15.5 8.3-3-17.9 6.8 2.2-2.1-5.9 17.1 2.8-8.3-15.4 16.7-5.2-14.4-10.3 6-2.9-6.1-3 14.4-10.4-16.9-5 8.2-15.7-17.4 3 2-6.1-5.8 2.1 2.8-17.1-15.9 8.5zm-13 35.4c14.8 0 26.8 12 26.8 26.8 0 14.9-12 26.9-26.8 26.9s-26.8-12-26.8-26.9c0-14.8 12-26.8 26.8-26.8z" fill="url(#c)"/><path d="m45.9 131.6 16.4-8.5 5.7 17.6 9.7-14 2.7 5.3 2.7-5.5 9.9 14.1 5.3-16.9 15.5 8.3-3-17.9 6.8 2.2-2.1-5.9 17.1 2.8-8.3-15.4 16.7-5.2-14.4-10.3 6-2.9-6.1-3 14.4-10.4-16.9-5 8.2-15.7zm60.2-50.9c0 14.9-12 26.9-26.8 26.9s26.8-41.7 26.8-26.9z" fill="#fff" fill-opacity=".4"/></g><path d="m24.6 7.3h75.7c11.7 0 17.4 5.7 17.4 17.4 0 0-79.3.9-110.4 91.3v-91.3c0-10.3 7-17.4 17.3-17.4z" fill="url(#b)"/></svg>