<svg height="140.9" width="125.3" xmlns="http://www.w3.org/2000/svg" xmlns:xlink="http://www.w3.org/1999/xlink"><linearGradient id="a" gradientTransform="matrix(.939922 0 0 .896911 -12.081733 -3.352424)" gradientUnits="userSpaceOnUse" x1="24" x2="73" y1="16.4" y2="73.4"><stop offset="0" stop-color="#fff"/><stop offset="1" stop-color="#fff" stop-opacity="0"/></linearGradient><linearGradient id="b"><stop offset="0" stop-opacity=".4"/><stop offset="1" stop-color="#fff" stop-opacity="0"/></linearGradient><linearGradient id="c" gradientTransform="matrix(.835844 0 0 1.105209 -13.263758 -7.925206)" gradientUnits="userSpaceOnUse" x1="160.6" x2="124" xlink:href="#b" y1="56.2" y2="56.2"/><linearGradient id="d" gradientTransform="matrix(1.11917 0 0 .825418 -13.263758 -7.925206)" gradientUnits="userSpaceOnUse" x1="86.6" x2="40.3" xlink:href="#b" y1="76.5" y2="76.4"/><linearGradient id="e" gradientTransform="matrix(.632812 0 0 1.182913 -5.352506 -7.925206)" gradientUnits="userSpaceOnUse" x1="52.9" x2="17.1" xlink:href="#b" y1="53" y2="53"/><rect fill="none" height="133.4" rx="22.9" stroke="#000" stroke-linejoin="round" stroke-opacity=".5" stroke-width="7.5" width="117.8" x="3.8" y="3.8"/><rect fill="#83a67f" height="133.4" rx="22.9" stroke="#000" stroke-width="3.8" width="117.8" x="3.6" y="3.7"/><path d="m24.6 7.3h75.7c11.7 0 17.4 5.7 17.4 17.4 0 0-79.3.9-110.4 91.3v-91.3c0-10.3 7-17.4 17.3-17.4z" fill="url(#a)"/><path d="m100.3 132.6h-75.7c-11.6 0-17.3-5.7-17.3-17.4 0 0 27.6-66.5 110.4-76.6v76.6c0 11.7-5.7 17.4-17.4 17.4z" fill="#fff" fill-opacity=".3"/><g stroke="#000"><path d="m5.1 75.4h114v13.1h-114z" fill="#6e6d6e" stroke-width="2"/><path d="m5.1 19.7h114v13.1h-114z" fill="#6d6d6d" stroke-width="2"/><path d="m5.5 32.8h22.7v42.6h-22.7z" fill="url(#e)" stroke-width=".5"/><path d="m30.3 32.8h58.1v42.6h-58.1z" fill="url(#d)" stroke-width=".5"/><path d="m90.7 32.8h32.1v42.6h-32.1z" fill="url(#c)" stroke-width=".6"/><path d="m9.4 23h8.6v6.6h-8.6z" fill="#fff" stroke-width=".5"/><path d="m22.4 23h8.6v6.6h-8.6z" fill="#fff" stroke-width=".5"/><path d="m35.3 23h8.6v6.6h-8.6z" fill="#fff" stroke-width=".5"/><path d="m48.2 23h8.6v6.6h-8.6z" fill="#fff" stroke-width=".5"/><path d="m61.1 23h8.6v6.6h-8.6z" fill="#fff" stroke-width=".5"/><path d="m74 23h8.6v6.6h-8.6z" fill="#fff" stroke-width=".5"/><path d="m86.9 23h8.6v6.6h-8.6z" fill="#fff" stroke-width=".5"/><path d="m99.8 23h8.6v6.6h-8.6z" fill="#fff" stroke-width=".5"/><path d="m112.6 23h5.9v6.6h-5.9z" fill="#fff" stroke-width=".4"/><path d="m9.8 79h8.6v6.6h-8.6z" fill="#fff" stroke-width=".5"/><path d="m22.7 79h8.6v6.6h-8.6z" fill="#fff" stroke-width=".5"/><path d="m35.6 79h8.6v6.6h-8.6z" fill="#fff" stroke-width=".5"/><path d="m48.5 79h8.6v6.6h-8.6z" fill="#fff" stroke-width=".5"/><path d="m61.4 79h8.6v6.6h-8.6z" fill="#fff" stroke-width=".5"/><path d="m74.3 79h8.6v6.6h-8.6z" fill="#fff" stroke-width=".5"/><path d="m87.2 79h8.6v6.6h-8.6z" fill="#fff" stroke-width=".5"/><path d="m100.1 79h8.6v6.6h-8.6z" fill="#fff" stroke-width=".5"/><path d="m112.9 79h5.4v6.6h-5.4z" fill="#fff" stroke-width=".4"/></g><path d="m84.3 96.3h6.5l7.9 20.3h.1l8.2-20.3h6.4l-12.1 26h-5.8zm-28.8 26h-5.6v-26h8.3l6.9 20.1 6.9-20.1h8.4v26h-5.7v-19.4h-.1l-6.8 19.4h-5.4l-6.8-19.4h-.1zm-44.9-26h6.1l3.8 19.3h.2l5.6-19.3h6.7l5.5 19.3h.1l3.9-19.3h6l-6.6 26h-6.6l-5.6-19.2h-.1l-5.7 19.2h-6.6z" fill="#fff"/><path d="m85 97h6.4l7.9 20.3h.2l8.1-20.3h6.5l-12.2 26h-5.7zm-28.8 26h-5.6v-26h8.3l6.8 20.1 6.9-20.1h8.4v26h-5.6v-19.4h-.1l-6.8 19.4h-5.4l-6.8-19.4h-.1zm-44.9-26h6.1l3.8 19.3h.2l5.6-19.3h6.6l5.6 19.3h.1l3.8-19.3h6.1l-6.6 26h-6.7l-5.5-19.3h-.2l-5.6 19.3h-6.7z"/></svg>