<svg height="140.9" width="125.3" xmlns="http://www.w3.org/2000/svg" xmlns:xlink="http://www.w3.org/1999/xlink"><linearGradient id="a" gradientTransform="matrix(.939922 0 0 .896911 -12.081733 -3.352424)" gradientUnits="userSpaceOnUse" x1="24" x2="73" y1="16.4" y2="73.4"><stop offset="0" stop-color="#fff"/><stop offset="1" stop-color="#fff" stop-opacity="0"/></linearGradient><linearGradient id="b" gradientTransform="matrix(.728851 0 0 .59494 9.587434 3.989714)" gradientUnits="userSpaceOnUse" x1="14.2" x2="143.1" y1="86.1" y2="86.1"><stop offset="0" stop-color="#cccaa7"/><stop offset="1" stop-color="#6d5400"/></linearGradient><radialGradient id="c" cx="-6.3" cy="25.5" fx="-6.6" gradientTransform="scale(.959709 1.041983)" gradientUnits="userSpaceOnUse" r="11.6"><stop offset="0" stop-color="#fff"/><stop offset=".7" stop-color="#bdbcbc"/><stop offset="1"/></radialGradient><rect fill="none" height="133.4" rx="22.9" stroke="#000" stroke-linejoin="round" stroke-opacity=".5" stroke-width="7.5" width="117.8" x="3.8" y="3.8"/><rect fill="#df421e" height="133.4" rx="22.9" stroke="#000" stroke-width="3.8" width="117.8" x="3.6" y="3.7"/><path d="m100.3 132.6h-75.7c-11.6 0-17.3-5.7-17.3-17.4 0 0 27.6-66.5 110.4-76.6v76.6c0 11.7-5.7 17.4-17.4 17.4z" fill="#fff" fill-opacity=".3"/><g stroke="#000"><path d="m36.5 21.2c3.2 2.6 40 51 74.6-1.9 2.8 33.5-16.7 36.2-16.7 36.2 2.6 20.1-25.6 42.4-45.1 25.7-19.5.5-26-7.3-26.9-13.5 2.4-8.1 9.2-11.7 24.3-19-5.3-7.2-8.7-21.7-10.2-27.5z" fill="none" stroke-opacity=".4" stroke-width="4.1"/><path d="m36.5 21.2c3.2 2.6 40 51 74.6-1.9 2.8 33.5-16.7 36.2-16.7 36.2 2.6 20.1-26.6 42.9-45.1 25.7-18.5 1.5-26-7.3-26.9-13.5 2.4-8.1 9.2-11.7 24.3-19-5.3-7.2-8.7-21.7-10.2-27.5z" fill="url(#b)" fill-opacity=".8" stroke-width="1.6"/><path d="m60.2-13.6a10.6 10.6 0 1 1 -21.2 0 10.6 10.6 0 1 1 21.2 0z" fill="#fff" stroke-width="2.1" transform="matrix(.772452 0 0 .768963 9.073024 58.665684)"/><path d="m60.2-13.6a10.6 10.6 0 1 1 -21.2 0 10.6 10.6 0 1 1 21.2 0z" fill="#fff" stroke-width="1.7" transform="matrix(.962223 0 0 .97822 16.574004 62.344414)"/><path d="m-10.6.6a7.1 7.1 0 1 1 -14.2 0 7.1 7.1 0 1 1 14.2 0z" transform="matrix(.556097 0 0 .59102 59.786364 50.446824)"/><path d="m-10.6.6a7.1 7.1 0 1 1 -14.2 0 7.1 7.1 0 1 1 14.2 0z" transform="matrix(.698487 0 0 .712144 79.975424 52.529214)"/></g><path d="m46.6 81.1s16.7 3.8 32.8-14.6" fill="none" stroke="#fff" stroke-linecap="round" stroke-opacity=".2" stroke-width="2.9"/><path d="m43.1 81.1s18.6 2 34.7-16.5" fill="none" stroke="#000" stroke-linecap="round" stroke-width="2.9"/><path d="m105.4 100.8h-10c-1.6 0-2.8.2-3.7.5-.5.2-.9.3-1.2.5-.4.2-.7.5-1 .8-.9.8-1.6 1.8-2 3l-.2.9-.1 1.1v.8h18.2v5.2h-18.2v13h-6.7v-15.6c0-1.4 0-2.5.1-3.6.1-1 .2-1.9.4-2.7.6-2.5 1.8-4.6 3.5-6.3 1.2-1 2.5-1.8 4.1-2.2 1.6-.5 3.6-.8 6.1-.8h10.7zm-28-5.4v5.4h-11.5c-2.6 0-4.5.9-5.8 2.6-1.2 1.7-1.9 4.2-1.9 7.6s.6 6 1.8 7.7 3.2 2.5 5.9 2.5h11.5v5.4h-13.5c-4.2 0-7.5-1.4-9.7-4-2.3-2.7-3.4-6.6-3.4-11.6 0-5.1 1.1-8.9 3.4-11.6 2.2-2.6 5.5-4 9.7-4zm-57.8 0h7.9l7 10.8 6.8-10.8h7.9l-11.4 15.6 11.4 15.6h-7.9l-6.8-10.8-7 10.8h-7.9l11.4-15.6z"/><path d="m104.7 100.1h-10c-1.5 0-2.8.2-3.7.5-.5.2-.9.3-1.2.5-.4.2-.7.5-1 .8-.9.8-1.5 1.8-1.9 3l-.3.9-.1 1.1v.9h18.2v5.1h-18.2v13h-6.7v-15.6c0-1.3.1-2.5.1-3.5.1-1.1.3-2 .4-2.8.6-2.5 1.8-4.6 3.6-6.2 1.1-1.1 2.4-1.8 4-2.3s3.7-.7 6.1-.7h10.7zm-28-5.3v5.3h-11.5c-2.5 0-4.5.9-5.7 2.6-1.3 1.7-2 4.2-2 7.6s.6 6 1.8 7.7 3.2 2.6 5.9 2.6h11.5v5.3h-13.5c-4.2 0-7.4-1.3-9.7-4-2.2-2.7-3.4-6.6-3.4-11.6s1.2-8.9 3.4-11.5c2.2-2.7 5.5-4 9.7-4zm-57.8 0h8l6.9 10.7 6.8-10.7h7.9l-11.4 15.5 11.4 15.6h-7.9l-6.8-10.7-6.9 10.7h-8l11.4-15.6z" fill="#fff"/><path d="m17.7 34.2a17.7 19.5 0 1 1 -35.4 0 17.7 19.5 0 1 1 35.4 0z" fill="url(#c)" stroke="#000" stroke-opacity=".5" stroke-width="5.9" transform="matrix(.71504 0 0 .68919 25.438544 38.958304)"/><path d="m24.6 7.3h75.7c11.7 0 17.4 5.7 17.4 17.4 0 0-79.3.9-110.4 91.3v-91.3c0-10.3 7-17.4 17.3-17.4z" fill="url(#a)"/></svg>