<svg height="140.9" width="125.3" xmlns="http://www.w3.org/2000/svg" xmlns:xlink="http://www.w3.org/1999/xlink"><linearGradient id="a" gradientTransform="matrix(.939922 0 0 .896911 -12.081733 -3.352424)" gradientUnits="userSpaceOnUse" x1="24" x2="73" y1="16.4" y2="73.4"><stop offset="0" stop-color="#fff"/><stop offset="1" stop-color="#fff" stop-opacity="0"/></linearGradient><rect fill="none" height="133.4" rx="22.9" stroke="#000" stroke-linejoin="round" stroke-opacity=".5" stroke-width="7.5" width="117.8" x="3.8" y="3.8"/><rect fill="#bab5ab" height="133.4" rx="22.9" stroke="#000" stroke-width="3.8" width="117.8" x="3.6" y="3.7"/><path d="m100.3 132.6h-75.7c-11.6 0-17.3-5.7-17.3-17.4 0 0 27.6-66.5 110.4-76.6v76.6c0 11.7-5.7 17.4-17.4 17.4z" fill="#fff" fill-opacity=".3"/><path d="m103.6 94.6v5.3h-17.2c-1.1 0-2.1.4-3 1-.7.7-1.1 1.6-1.1 2.8s.4 2.2 1.3 2.8c.7.6 1.7.9 2.9.9h9.7c2.2 0 4.1.6 5.8 1.8 2.2 1.7 3.3 4.1 3.3 7.3 0 3.1-1.1 5.6-3.3 7.3-1.7 1.3-3.6 1.9-5.8 1.9h-20.6v-5.3h17.6c1 0 1.9-.4 2.8-1.1.8-.7 1.3-1.6 1.3-2.8 0-1.1-.5-2-1.3-2.7s-1.8-1.1-2.9-1.1h-9.8c-2.1 0-4.1-.6-5.7-1.8-2.2-1.6-3.3-4-3.3-7.2s1.1-5.6 3.3-7.3c1.6-1.2 3.5-1.8 5.7-1.8zm-41.9 31.1c-1.6 0-3-.2-4.3-.6-1.4-.5-2.5-1.1-3.4-2-.5-.4-1-.9-1.4-1.6-.2-.2-.4-.5-.5-.8-.2-.2-.3-.6-.5-1.2-.6-1.5-.8-3.2-.8-5.1v-19.8h6.7v19.4c0 1 .1 1.9.3 2.6.3.7.8 1.4 1.4 2.1.6.6 1.3 1 2.1 1.3s1.7.4 2.6.4h8.7v5.3zm-42.2-31.1h7.9l7 10.7 6.8-10.7h7.9l-11.4 15.5 11.4 15.6h-7.9l-6.8-10.7-7 10.7h-7.9l11.4-15.6z" fill="#fff"/><path d="m104.3 95.3v5.3h-17.2c-1.1 0-2.1.3-3 1-.7.7-1.1 1.6-1.1 2.7 0 1.3.4 2.3 1.2 2.9s1.7.9 3 .9h9.7c2.1 0 4.1.6 5.8 1.8 2.2 1.6 3.3 4.1 3.3 7.3 0 3.1-1.1 5.5-3.3 7.3-1.7 1.3-3.6 1.9-5.8 1.9h-20.6v-5.3h17.6c1 0 1.9-.4 2.8-1.1.8-.7 1.3-1.7 1.3-2.8s-.5-2-1.3-2.7c-.8-.8-1.8-1.1-2.9-1.1h-9.8c-2.2 0-4.1-.6-5.8-1.8-2.2-1.6-3.2-4.1-3.2-7.3s1-5.6 3.2-7.2c1.7-1.2 3.6-1.8 5.8-1.8zm-41.9 31.1c-1.6 0-3.1-.2-4.4-.7-1.3-.4-2.4-1-3.3-1.9-.5-.4-1-.9-1.4-1.6-.2-.3-.4-.5-.5-.8-.2-.2-.4-.7-.6-1.2-.5-1.5-.8-3.2-.8-5.1v-19.8h6.8v19.4c0 1 .1 1.9.3 2.6.3.7.7 1.4 1.4 2.1.6.5 1.3 1 2.1 1.3.8.2 1.7.4 2.6.4h8.7v5.3zm-42.2-31.1h7.9l6.9 10.7 6.8-10.7h8l-11.4 15.5 11.4 15.6h-8l-6.8-10.7-6.9 10.7h-7.9l11.4-15.6z"/><g transform="translate(-26.091876 -6.463106)"><path d="m41.2 23.7h80v70.6h-80z" fill="#fff" stroke="#000" stroke-width="3.5"/><path d="m42.5 24.9h25.8v11.3h-25.8z" fill="#b8baba" stroke="#717373" stroke-width=".5"/><path d="m42.9 25.2h25.1v.9h-25.1z" fill="#fff"/><path d="m25.6-43.7h10.2v.9h-10.2z" fill="#fff" transform="rotate(90)"/><path d="m43.7 34.9h24.3v.9h-24.3z" fill="#333"/><path d="m26.2-68h8.9v.9h-8.9z" fill="#333" transform="rotate(90)"/><path d="m68.3 24.9h25.8v11.3h-25.8z" fill="#b8baba" stroke="#717373" stroke-width=".5"/><path d="m68.7 25.2h25.1v.9h-25.1z" fill="#fff"/><path d="m25.6-69.5h10.2v.9h-10.2z" fill="#fff" transform="rotate(90)"/><path d="m69.5 34.9h24.3v.9h-24.3z" fill="#333"/><path d="m26.2-93.8h8.9v.9h-8.9z" fill="#333" transform="rotate(90)"/><path d="m94.1 24.9h25.8v11.3h-25.8z" fill="#b8baba" stroke="#717373" stroke-width=".5"/><path d="m94.5 25.2h25.1v.9h-25.1z" fill="#fff"/><path d="m25.6-95.3h10.2v.9h-10.2z" fill="#fff" transform="rotate(90)"/><path d="m95.3 34.9h24.3v.9h-24.3z" fill="#333"/><path d="m26.2-119.6h8.9v.9h-8.9z" fill="#333" transform="rotate(90)"/><path d="m42.5 58.7h25.8v11.3h-25.8z" fill="#b8baba" stroke="#717373" stroke-width=".5"/><path d="m42.9 59h25.1v.9h-25.1z" fill="#fff"/><path d="m59.5-43.7h10.2v.9h-10.2z" fill="#fff" transform="rotate(90)"/><path d="m43.7 68.7h24.3v.9h-24.3z" fill="#333"/><path d="m60-68h8.9v.9h-8.9z" fill="#333" transform="rotate(90)"/><path d="m42.5 36.2h25.8v11.3h-25.8z" fill="#b8baba" stroke="#717373" stroke-width=".5"/><path d="m42.9 36.5h25.1v.9h-25.1z" fill="#fff"/><path d="m36.9-43.7h10.2v.9h-10.2z" fill="#fff" transform="rotate(90)"/><path d="m43.7 46.2h24.3v.9h-24.3z" fill="#333"/><path d="m37.4-68h8.9v.9h-8.9z" fill="#333" transform="rotate(90)"/><path d="m42.5 47.4h25.8v11.3h-25.8z" fill="#b8baba" stroke="#717373" stroke-width=".5"/><path d="m42.9 47.7h25.1v.9h-25.1z" fill="#fff"/><path d="m48.2-43.7h10.2v.9h-10.2z" fill="#fff" transform="rotate(90)"/><path d="m43.7 57.5h24.3v.9h-24.3z" fill="#333"/><path d="m48.7-68h8.9v.9h-8.9z" fill="#333" transform="rotate(90)"/><path d="m42.5 70h25.8v11.3h-25.8z" fill="#b8baba" stroke="#717373" stroke-width=".5"/><path d="m42.9 70.3h25.1v.9h-25.1z" fill="#fff"/><path d="m70.8-43.7h10.2v.9h-10.2z" fill="#fff" transform="rotate(90)"/><path d="m43.7 80h24.3v.9h-24.3z" fill="#333"/><path d="m71.3-68h8.9v.9h-8.9z" fill="#333" transform="rotate(90)"/><path d="m42.5 81.3h25.8v11.3h-25.8z" fill="#b8baba" stroke="#717373" stroke-width=".5"/><path d="m42.9 81.6h25.1v.9h-25.1z" fill="#fff"/><path d="m82.1-43.7h10.2v.9h-10.2z" fill="#fff" transform="rotate(90)"/><path d="m43.7 91.3h24.3v.9h-24.3z" fill="#333"/><path d="m82.6-68h8.9v.9h-8.9z" fill="#333" transform="rotate(90)"/><g fill="#fff" stroke="#717373" stroke-width=".5"><path d="m68 36.4h25.8v11.3h-25.8z"/><path d="m93.8 36.4h25.8v11.3h-25.8z"/><path d="m68 47.7h25.8v11.3h-25.8z"/><path d="m93.8 47.7h25.8v11.3h-25.8z"/><path d="m68 59h25.8v11.3h-25.8z"/><path d="m93.8 59h25.8v11.3h-25.8z"/><path d="m68 70.3h25.8v11.3h-25.8z"/><path d="m93.8 70.3h25.8v11.3h-25.8z"/><path d="m68 81.6h25.8v11.3h-25.8z"/><path d="m93.8 81.6h25.8v11.3h-25.8z"/></g></g><g stroke="#000" stroke-width="1.3" transform="matrix(.410918 0 0 .410918 54.912524 20.127804)"><path d="m21.9 26v113.1c23.9-18.9 35.6-14.2 56.6 0 21.4 14.1 42.9 14.1 61.2-9.5v-117.8c-18.8 23.6-33 37.7-59.8 14.8-24-18.8-34.1-19.5-58-.6z" stroke-linejoin="round"/><path d="m26.6 30.7v47.1c4.7-9.4 14.2-14.1 23.6-14.1s18.8 4.7 28.3 14.1v-47.1c-9.5-9.4-18.9-14.1-28.3-14.1s-18.9 4.7-23.6 14.1z" fill="#df421e"/><path d="m26.6 82.5v47.1c8.6-5.5 14.2-9.4 23.6-9.4s22.7 8.6 28.3 14.1v-51.8c-9.5-9.4-18.9-14.1-28.3-14.1s-18.9 4.7-23.6 14.1z" fill="#7590ae"/><path d="m83.2 82.5v-47.1c8.6 5.5 14.1 9.4 23.5 9.4 14.2 0 22.8-13.3 28.3-18.8v51.8c-9.4 9.4-18.8 14.1-28.3 14.1-4.7 0-14.1 0-23.5-9.4z" fill="#46a046"/><path d="m83.2 134.3v-47.1c8.6 5.6 14.1 9.5 23.5 9.5 13.3-.9 22.8-8.6 28.3-14.2v47.1c-9.4 9.5-18.8 14.2-28.3 14.2-4.7 0-14.1 0-23.5-9.5z" fill="#eed680"/></g><path d="m24.6 7.3h75.7c11.7 0 17.4 5.7 17.4 17.4 0 0-79.3.9-110.4 91.3v-91.3c0-10.3 7-17.4 17.3-17.4z" fill="url(#a)"/></svg>