<svg height="140.9" width="125.3" xmlns="http://www.w3.org/2000/svg" xmlns:xlink="http://www.w3.org/1999/xlink"><linearGradient id="a" gradientTransform="matrix(.939922 0 0 .896911 -12.081733 -3.352424)" gradientUnits="userSpaceOnUse" x1="24" x2="73" y1="16.4" y2="73.4"><stop offset="0" stop-color="#fff"/><stop offset="1" stop-color="#fff" stop-opacity="0"/></linearGradient><linearGradient id="b" gradientTransform="matrix(1.222575 0 0 .738788 -10.653167 -7.742593)" gradientUnits="userSpaceOnUse" x1="12.2" x2="107.8" y1="84" y2="84"><stop offset="0" stop-color="#46a046"/><stop offset=".4" stop-color="#df421e"/><stop offset=".7" stop-color="#ada7c8"/><stop offset="1" stop-color="#eed680"/></linearGradient><g stroke="#000"><rect fill="none" height="133.4" rx="22.9" stroke-linejoin="round" stroke-opacity=".5" stroke-width="7.5" width="117.8" x="3.8" y="3.8"/><rect fill="#df421e" height="133.4" rx="22.9" stroke-width="3.8" width="117.8" x="3.6" y="3.7"/><rect fill="url(#b)" height="67.2" rx="1.3" stroke-width="3.3" width="113.7" x="5.9" y="20.8"/></g><path d="m100.3 132.6h-75.7c-11.6 0-17.3-5.7-17.3-17.4 0 0 27.6-66.5 110.4-76.6v76.6c0 11.7-5.7 17.4-17.4 17.4z" fill="#fff" fill-opacity=".3"/><path d="m24.6 7.3h75.7c11.7 0 17.4 5.7 17.4 17.4 0 0-79.3.9-110.4 91.3v-91.3c0-10.3 7-17.4 17.3-17.4z" fill="url(#a)"/><path d="m86 95.6h15.8c4 0 7 1.2 9.1 3.8 2.1 2.5 3.2 6.2 3.2 11.1 0 4.7-1.1 8.4-3.2 11-2 2.5-5.1 3.8-9.1 3.8h-15.8zm6.2 24.6h7.5c2.5 0 4.4-.8 5.6-2.4s1.8-4.1 1.8-7.3c0-3.3-.6-5.8-1.8-7.4-1.1-1.6-2.9-2.4-5.6-2.4h-7.5zm-51.3-24.6h6.9l4.4 22h.2l6.4-22h7.6l6.4 22h.1l4.4-22h6.9l-7.5 29.7h-7.7l-6.3-22h-.2l-6.4 22h-7.6zm-29.9 0h7.6l6.6 10.2 6.5-10.2h7.6l-10.9 14.9 10.9 14.8h-7.6l-6.5-10.2-6.6 10.2h-7.6l10.9-14.8z"/><path d="m85.3 94.9h15.8c4 0 7.1 1.3 9.2 3.8 2 2.6 3.1 6.3 3.1 11.1 0 4.7-1.1 8.4-3.1 11-2.1 2.6-5.2 3.9-9.2 3.9h-15.8zm6.2 24.7h7.5c2.5 0 4.4-.8 5.6-2.4 1.2-1.7 1.8-4.1 1.8-7.4s-.6-5.8-1.7-7.4c-1.2-1.6-3-2.4-5.7-2.4h-7.5zm-51.3-24.7h7l4.3 22.1h.2l6.4-22.1h7.6l6.4 22.1h.1l4.4-22.1h7l-7.6 29.8h-7.6l-6.4-22.1h-.1l-6.5 22.1h-7.6zm-29.8 0h7.5l6.7 10.2 6.5-10.2h7.5l-10.9 14.9 10.9 14.9h-7.5l-6.5-10.3-6.7 10.3h-7.5l10.9-14.9z" fill="#fff"/></svg>