<svg height="24" width="24" xmlns="http://www.w3.org/2000/svg"><path d="m4.8 1034.3c-.7.9-1.3 1.9-2 2.8h2zm5.6-6c-1 0-2 .6-2.7 1.7-.5.8-1.1 1.6-1.6 2.4v4.7h4.6v6.1h-1.3v-4.9h-3.3v3.1.5c0 .1.1.2.1.3.1.1.1.2.2.2s.2.1.4.1c.3 0 .6 0 .9-.1l.3.9c-.2.1-.5.2-.7.2s-.5.1-.7.1c-.6 0-1.1-.2-1.4-.5s-.4-.8-.4-1.5v-3.1h-2.8c-.5.7-1 1.4-1.5 2.1-.2.3-.4.7-.5 1-.2 1.2.4 2.4 1.6 3.2 3.6 2.3 7.2 4.9 10.4 7.2 1.4 1 3.2.4 4.2-1.2 1.6-2.5 3.4-5.1 5.1-7.4h-1.3-1.4v-5.2h-2.1l-1.6 1.8 2.4 3.4h-1.5l-2.2-3.1v3.1h-1.2v-8.2h1.2v4.7l2.1-2.5h4.1v4.9h.9 1.3c.4-.6.9-1.2 1.3-1.8.9-1.3.5-2.9-.8-4-.1-.1-.2-.2-.4-.3-3.6-2.3-7.2-4.9-10.4-7.2-.5-.3-1-.5-1.5-.5zm-.4 6.7c.3 0 .6.3.6.6s-.3.6-.6.6-.6-.3-.6-.6.3-.6.6-.6zm9.2 0c.3 0 .6.3.6.6s-.3.6-.6.6-.6-.3-.6-.6.3-.6.6-.6z" transform="translate(0 -1028.3622)"/></svg>