<svg enable-background="new 0 0 28.375 28" height="28" viewBox="0 0 28.4 28" width="28.4" xmlns="http://www.w3.org/2000/svg"><path d="m27.9 1.4h-27.9v26.1l1 .1v-27.1" fill="none" stroke="#00008b" stroke-width="1.5"/><path d="m.9 27.5h27" fill="none" stroke="#fff"/><path d="m.9 1h27.1v26h-27.1z" fill="#add8e6"/><g fill="none"><path d="m27.9 26.9v-26" stroke="#fff"/><path d="m1.4.5h26" stroke="#00008b"/><path d="m.9 1v26" stroke="#00008b"/></g><path d="m8.5 23.5c-.5-.2-1-1.3-1.4-1.7-.5-.6-.9-1.2-1.4-1.8-.7-.9-1.4-1.7-1.9-2.8-.4-.8-.9-2 0-2.6 1-.8 2.1-.2 2.9.5.8.6 1.7 1.2 2.5 1.9-.4-.3-.5-1-.8-1.4-.3-.5-.6-.9-.8-1.4-.4-.7-.8-1.2-1.2-1.8-.5-.8-1.1-1.7-.9-2.7.1-1 1-1.5 1.9-1.2 1.2.4 2 1.7 2.6 2.7s1.2 2.2 1.9 3c-.2-.2-.1-.5-.2-.8 0-.4-.1-.6-.2-1-.2-.5-.2-1-.2-1.4 0-.8-.2-1.5-.2-2.2 0-1-.1-2 .7-2.6.7-.5 1.6-.8 2.4-.2 1.4 1 1.1 3 1.2 4.5.1.8.2 1.5.2 2.3 0 .5.2 1.1.2 1.6-.1-.3-.1-.7-.1-1.1 0-.5 0-1-.1-1.5-.1-.7-.2-1.6-.2-2.3-.2-1.9 2.1-3.2 3.3-1.5.9 1.2.8 2.6.8 4.1 0 .7 0 1.3-.2 1.9-.1.5-.3 1.2-.2 1.6 0-.9.3-1.7.3-2.6 0-.7-.3-2.1.6-2.3 1.1-.3 2 .9 2.4 1.7.5.9.6 1.9.4 2.9-.3 2.2-.8 4.2-2.1 6.1-.3.4-.5.8-.8 1.2-.4.5-.9.8-1.4 1.1-.4.2-.8.5-1.2.6-.8.1-1.7.2-2.6.2-1.3 0-2.6-.1-3.8-.3-.8-.1-2.1.2-2.7-.5" fill="#fff" stroke="#000"/></svg>