<svg height="18" width="18" xmlns="http://www.w3.org/2000/svg"><path d="m-18 0h18v18h-18z" fill="#00008b" transform="rotate(-90)"/><g fill="none" stroke="#fff" stroke-width=".5"><path d="m16.9 9.3a7.1 7.1 0 1 1 -14.1 0 7.1 7.1 0 1 1 14.1 0zm-8.8-8.2c7.2 8.4.3 16 .3 16m3.2-15.7c7.3 8.1 0 15.4 0 15.4m-6.4-14.7c5.9 7.6.1 14.2.1 14.2m-2.6-12.5c3.7 5.4.2 10.6.2 10.6" transform="matrix(1.155321 0 0 1.155321 -2.292065 -1.795955)"/><path d="m16.9 9.3a7.1 7.1 0 1 1 -14.1 0 7.1 7.1 0 1 1 14.1 0zm-8.8-8.2c7.2 8.4.3 16 .3 16m3.2-15.7c7.3 8.1 0 15.4 0 15.4m-6.4-14.7c5.9 7.6.1 14.2.1 14.2m-2.6-12.5c3.7 5.4.2 10.6.2 10.6" transform="matrix(-.07243071275 1.15304848359 -1.15304848359 -.07243071275 20.51553206097 -1.56550109301)"/></g></svg>